<svg width="664" height="588" viewBox="0 0 664 588" fill="none" xmlns="http://www.w3.org/2000/svg">
<path d="M388.178 213.42C388.178 213.42 387.188 160.498 435.033 160.498C485.473 160.498 476.132 124.686 524.791 127.609C557.68 129.587 566.211 164.323 585.122 169.455C604.034 174.588 621.84 180.816 621.84 212.418L388.178 213.42Z" fill="white"/>
<path d="M491.567 477.595C491.567 477.595 490.837 438.553 526.133 438.553C563.347 438.553 556.456 412.132 592.352 414.289C616.617 415.749 622.907 441.376 636.863 445.162C650.818 448.949 663.952 453.544 663.952 476.86L491.567 477.595Z" fill="white"/>
<path d="M0.00138032 298.664C0.00138032 298.664 -0.876294 251.644 41.6313 251.644C86.4449 251.644 78.1459 219.827 121.374 222.428C150.59 224.185 158.169 255.046 174.975 259.606C191.78 264.166 207.596 269.699 207.596 297.776L0.00138032 298.664Z" fill="white"/>
<path opacity="0.1" d="M388.178 213.42C388.178 213.42 387.188 160.498 435.033 160.498C485.473 160.498 476.132 124.686 524.791 127.609C557.68 129.587 566.211 164.323 585.122 169.455C604.034 174.588 621.84 180.816 621.84 212.418L388.178 213.42Z" fill="#367CFF"/>
<path opacity="0.1" d="M491.567 477.595C491.567 477.595 490.837 438.553 526.133 438.553C563.347 438.553 556.456 412.132 592.352 414.289C616.617 415.749 622.907 441.376 636.863 445.162C650.818 448.949 663.952 453.544 663.952 476.86L491.567 477.595Z" fill="#367CFF"/>
<path opacity="0.1" d="M0.00138032 298.664C0.00138032 298.664 -0.876294 251.644 41.6313 251.644C86.4449 251.644 78.1459 219.827 121.374 222.428C150.59 224.185 158.169 255.046 174.975 259.606C191.78 264.166 207.596 269.699 207.596 297.776L0.00138032 298.664Z" fill="#367CFF"/>
<path d="M497.13 99.3428C496.762 98.7504 496.517 98.0892 496.413 97.3994C496.308 96.7095 496.345 96.0056 496.521 95.3305C496.697 94.6554 497.009 94.0233 497.438 93.4727C497.866 92.9221 498.403 92.4645 499.014 92.128C500.22 91.5177 501.612 91.3881 502.91 91.7653C504.208 92.1425 505.314 92.9985 506.005 94.1601L509.671 100.049L507.898 79.3524C507.518 76.6985 508.737 73.2039 511.739 72.9689C514.152 72.6191 516.119 69.3757 519.008 70.8022C519.034 70.7946 541.697 88.6495 542.053 91.1081L543.449 123.869C544.966 134.301 509.517 132.21 509.517 132.21L497.13 99.3428Z" fill="#E98862"/>
<g opacity="0.1">
<path d="M497.13 99.3428C496.762 98.7504 496.517 98.0892 496.413 97.3994C496.308 96.7095 496.345 96.0056 496.521 95.3305C496.697 94.6554 497.009 94.0233 497.438 93.4727C497.866 92.9221 498.403 92.4645 499.014 92.128C500.22 91.5177 501.612 91.3881 502.91 91.7653C504.208 92.1425 505.314 92.9985 506.005 94.1601L509.671 100.049L507.898 79.3524C507.518 76.6985 508.737 73.2039 511.739 72.9689C514.152 72.6191 516.119 69.3757 519.008 70.8022C519.034 70.7946 541.697 88.6495 542.053 91.1081L543.449 123.869C544.966 134.301 509.517 132.21 509.517 132.21L497.13 99.3428Z" fill="#0C0C0C"/>
</g>
<path d="M254.869 260.05C254.869 260.05 252.834 290.585 245.964 301.66C226.188 333.552 220.459 369.428 240.263 388.173C260.068 406.918 386.388 407.181 395.958 364.068C404.014 327.773 386.724 323.87 382.518 293.93C380.615 280.382 375.378 251.974 375.378 251.974" fill="#0A0A0A"/>
<path d="M363.261 357.747C363.042 357.719 360.623 397.868 313.98 394.368C281.69 391.949 270.177 357.688 269.433 357.688C272.915 356.947 278.778 355.872 280.324 355.047C285.409 352.314 291.697 349.472 293.338 339.598C294.286 333.911 292.68 304.792 293.174 299.031L342.739 310.094C342.046 322.254 337.199 350.447 354.189 355.437C357.019 356.268 360.064 357.026 363.261 357.747Z" fill="#E98862"/>
<path opacity="0.5" d="M343.437 343.921C342.661 341.419 342.161 338.839 341.946 336.228C341.401 330.27 341.51 324.27 342.271 318.335C332.197 316.975 322.707 312.818 314.879 306.334C313.958 309.733 308.897 324.585 310.299 327.815C312.945 333.921 325.393 343.921 343.437 343.921Z" fill="#0C0C0C"/>
<path d="M337.028 331.411C317.486 333.307 292.202 325.486 286.965 299.463L282.239 275.981C277 249.958 286.423 226.111 310.925 221.179C335.428 216.25 357.988 233.658 363.226 259.681L365.319 270.076C367.328 280.062 371.894 328.038 337.028 331.411Z" fill="#E98862"/>
<path d="M350.928 300.29C344.579 303.518 337.335 304.539 330.341 303.191C330.098 303.145 329.848 303.169 329.619 303.26C329.39 303.351 329.192 303.506 329.047 303.706C328.903 303.906 328.819 304.143 328.804 304.389C328.789 304.635 328.845 304.88 328.965 305.095C331.05 308.77 335.996 315.047 344.48 312.488C349.959 310.835 352.03 305.199 352.798 301.713C352.85 301.472 352.833 301.22 352.747 300.989C352.662 300.758 352.512 300.555 352.316 300.406C352.12 300.257 351.885 300.166 351.639 300.146C351.393 300.125 351.146 300.175 350.928 300.29Z" fill="white"/>
<path d="M351.325 272.052C353.02 272.052 354.393 270.678 354.393 268.984C354.393 267.289 353.02 265.916 351.325 265.916C349.631 265.916 348.257 267.289 348.257 268.984C348.257 270.678 349.631 272.052 351.325 272.052Z" fill="#0C0C0C"/>
<path d="M321.843 277.213C323.538 277.213 324.912 275.84 324.912 274.145C324.912 272.451 323.538 271.077 321.843 271.077C320.149 271.077 318.775 272.451 318.775 274.145C318.775 275.84 320.149 277.213 321.843 277.213Z" fill="#0C0C0C"/>
<path opacity="0.1" d="M324.607 297.312C327.822 296.928 330.201 294.705 329.92 292.346C329.638 289.987 326.803 288.386 323.587 288.77C320.372 289.153 317.993 291.377 318.274 293.735C318.556 296.094 321.391 297.695 324.607 297.312Z" fill="#0C0C0C"/>
<path opacity="0.1" d="M358.587 287.88C358.871 290.235 361.709 291.834 364.926 291.455C365.482 291.389 366.029 291.264 366.559 291.085C366.709 288.276 366.717 285.574 366.635 283.073C365.742 282.85 364.815 282.796 363.902 282.913C360.686 283.293 358.308 285.514 358.587 287.88Z" fill="#0C0C0C"/>
<path opacity="0.5" d="M344.377 295.16L344.425 295.153C345.418 294.946 346.399 294.684 347.364 294.369C348.802 293.887 350.681 293.097 350.423 291.796C350.126 290.312 342.841 275.132 342.013 273.408C341.941 273.257 341.811 273.141 341.653 273.086C341.495 273.031 341.322 273.04 341.171 273.113C341.02 273.185 340.904 273.315 340.849 273.473C340.794 273.631 340.803 273.804 340.876 273.955C343.982 280.42 348.984 291.049 349.185 292.048C349.028 292.513 346.641 293.422 344.178 293.919C344.015 293.947 343.87 294.039 343.774 294.174C343.678 294.309 343.639 294.476 343.665 294.639C343.691 294.803 343.781 294.949 343.914 295.047C344.048 295.145 344.214 295.187 344.378 295.163L344.377 295.16Z" fill="#0C0C0C"/>
<path d="M262.688 284.41L284.655 280.119C301.248 273.18 305.955 244.262 305.955 244.262C305.955 244.262 326.434 263.764 375.378 251.971C375.378 251.971 364.746 183.647 292.477 204.386C269.174 211.073 252.669 234.825 255.124 266.285C256.844 288.332 262.688 284.41 262.688 284.41Z" fill="#0A0A0A"/>
<path d="M290.082 307.085C282.636 308.583 274.996 301.832 273.495 294.384C271.995 286.936 277.207 281.616 284.653 280.117L289.495 284.334L296.482 305.794L290.082 307.085Z" fill="#E98862"/>
<path d="M347.292 261.301C349.155 259.983 351.334 259.183 353.607 258.981C354.747 258.873 355.898 258.937 357.019 259.171C358.151 259.402 359.25 259.774 360.29 260.279L360.323 260.294C360.438 260.345 360.569 260.349 360.687 260.305C360.805 260.26 360.901 260.172 360.955 260.058C361.008 259.944 361.015 259.814 360.974 259.695C360.932 259.576 360.846 259.477 360.734 259.421C359.632 258.839 358.461 258.398 357.249 258.109C356.029 257.813 354.771 257.701 353.518 257.779C350.979 257.919 348.525 258.738 346.409 260.148C346.25 260.256 346.141 260.423 346.105 260.612C346.069 260.8 346.11 260.996 346.218 261.155C346.326 261.314 346.493 261.423 346.681 261.459C346.87 261.495 347.065 261.454 347.224 261.346L347.241 261.334L347.292 261.301Z" fill="#0C0C0C"/>
<path d="M327.226 264.074C324.732 263.578 322.15 263.761 319.75 264.603C318.563 265.011 317.445 265.596 316.432 266.336C315.424 267.067 314.511 267.922 313.716 268.881C313.632 268.976 313.589 269.1 313.595 269.227C313.602 269.353 313.658 269.472 313.752 269.557C313.846 269.643 313.969 269.688 314.096 269.683C314.222 269.678 314.342 269.624 314.429 269.531L314.454 269.505C315.221 268.641 316.094 267.876 317.051 267.23C317.999 266.584 319.039 266.084 320.136 265.749C322.313 265.066 324.632 264.971 326.857 265.475L326.912 265.488C327.099 265.533 327.296 265.502 327.46 265.402C327.624 265.302 327.742 265.141 327.787 264.955C327.832 264.768 327.801 264.571 327.701 264.407C327.601 264.243 327.44 264.126 327.254 264.08L327.226 264.074Z" fill="#0C0C0C"/>
<path d="M284.669 279.759C299.436 274.262 304.335 264.065 305.845 256.477C306.822 251.416 306.73 246.208 305.577 241.184L305.12 241.309C306.255 246.268 306.343 251.408 305.377 256.402C303.888 263.866 299.057 273.9 284.504 279.316L284.669 279.759Z" fill="#0C0C0C"/>
<path d="M116.554 168.673L106.858 137.692C106.645 137.012 106.292 136.383 105.823 135.846C105.353 135.309 104.777 134.875 104.131 134.573C103.485 134.271 102.783 134.107 102.07 134.091C101.357 134.075 100.648 134.207 99.9892 134.48C98.7881 135.022 97.8309 135.99 97.3033 137.197C96.7756 138.405 96.7151 139.765 97.1334 141.014L99.2129 147.658L83.0849 129.768C81.3267 127.747 77.8719 126.392 75.7403 128.515C74.865 129.277 74.2741 130.314 74.0639 131.456C73.8537 132.598 74.0367 133.777 74.583 134.801C74.5596 134.813 74.5377 134.827 74.5176 134.844C74.5046 134.859 74.4925 134.875 74.4816 134.891L71.7709 131.776C71.2683 131.199 70.6434 130.742 69.9416 130.437C69.2398 130.132 68.4788 129.988 67.7142 130.015C66.9495 130.041 66.2005 130.238 65.5217 130.591C64.8428 130.944 64.2513 131.444 63.7903 132.055C63.0834 133.03 62.733 134.219 62.7979 135.422C62.8628 136.625 63.3389 137.77 64.1466 138.664L65.3001 139.991C65.2776 140.042 65.2641 140.097 65.2603 140.153C64.2728 139.438 63.0632 139.097 61.8476 139.192C60.6321 139.287 59.49 139.811 58.6256 140.671C57.7077 141.64 57.1886 142.918 57.1721 144.253C57.1556 145.587 57.6428 146.878 58.5365 147.869L61.4027 151.162C61.3293 151.144 61.2528 151.144 61.1793 151.161C61.1058 151.179 61.0375 151.213 60.98 151.262C60.9147 151.324 60.8689 151.403 60.8482 151.491C59.7921 151.098 58.6364 151.064 57.5588 151.393C56.4811 151.721 55.5413 152.395 54.8836 153.309C54.2124 154.284 53.89 155.457 53.9686 156.639C54.0473 157.82 54.5223 158.94 55.3168 159.817L79.4984 187.6C82.8819 191.486 87.3485 194.274 92.326 195.605C97.3035 196.937 102.565 196.752 107.437 195.075C111.638 193.627 115.109 190.599 117.112 186.634C119.116 182.668 119.494 178.077 118.167 173.837L116.554 168.673Z" fill="#E98862"/>
<g opacity="0.2">
<path d="M90.4578 152.589C90.3637 152.67 90.2415 152.712 90.1173 152.704C89.9932 152.696 89.8772 152.639 89.7943 152.546L74.4814 135.513C74.3974 135.42 74.3539 135.297 74.3605 135.171C74.3672 135.045 74.4235 134.928 74.517 134.844C74.6105 134.76 74.7336 134.716 74.8592 134.723C74.9847 134.729 75.1025 134.786 75.1866 134.879L90.5014 151.912C90.5855 152.006 90.629 152.129 90.6224 152.254C90.6158 152.38 90.5597 152.497 90.4663 152.582L90.4578 152.589Z" fill="#0C0C0C"/>
</g>
<g opacity="0.2">
<path d="M83.1325 159.551C83.0385 159.632 82.9162 159.673 82.7921 159.665C82.6679 159.657 82.5519 159.601 82.4691 159.508L65.38 140.499C65.2959 140.405 65.2524 140.282 65.259 140.157C65.2655 140.031 65.3217 139.914 65.415 139.83C65.5104 139.75 65.6328 139.709 65.7572 139.715C65.8816 139.722 65.9989 139.776 66.0851 139.866L83.1761 158.874C83.2602 158.967 83.3037 159.09 83.2971 159.216C83.2906 159.341 83.2344 159.459 83.1411 159.543L83.1325 159.551Z" fill="#0C0C0C"/>
</g>
<g opacity="0.2">
<path d="M75.2407 167.137C75.1466 167.218 75.0242 167.259 74.9001 167.251C74.7759 167.243 74.66 167.186 74.5773 167.093L60.9458 151.934C60.8617 151.841 60.8182 151.717 60.8249 151.592C60.8316 151.466 60.8878 151.348 60.9813 151.264C61.0749 151.18 61.1979 151.137 61.3235 151.143C61.4491 151.15 61.5669 151.206 61.651 151.3L75.2853 166.465C75.3692 166.558 75.4126 166.682 75.4058 166.807C75.3991 166.933 75.3428 167.05 75.2493 167.134L75.2407 167.137Z" fill="#0C0C0C"/>
</g>
<path d="M493.638 112.606L462.602 262.425L356.92 369.183L412.41 420.859L517.189 301.229L517.817 300.522C521.511 296.271 524.088 291.167 525.312 285.67L560.887 127.115L493.638 112.606Z" fill="#FF4F28"/>
<path d="M312.401 384.381C280.09 382.858 278.73 355.43 278.73 355.43C278.73 355.43 262.719 356.464 252.076 357.905C234.651 360.262 223.157 366.171 214.008 375.318C205.499 383.828 207.913 410.376 207.913 410.376L216.454 587.996H411.468L420.688 411.353C420.688 411.353 431.164 388.937 413.358 370.096C400.444 356.437 367.106 355.43 353.685 355.43C353.466 355.43 356.407 386.456 312.401 384.381Z" fill="#FF4F28"/>
<path d="M160.589 292.146L125.647 167.181L59.5723 186.34L99.9653 320.879C101.813 326.977 105.32 332.44 110.096 336.658L110.759 337.24L217.188 430.789L265.268 372.156L160.589 292.146Z" fill="#FF4F28"/>
<path d="M501.181 75.1469L499.582 76.2369C495.52 79.0077 490.952 80.9512 486.139 81.9566C481.326 82.9619 476.362 83.0093 471.53 82.096C466.699 81.1828 462.095 79.3268 457.981 76.6341C453.867 73.9413 450.324 70.4646 447.553 66.4024L432.584 44.4519C432.387 44.1624 432.249 43.8368 432.177 43.4938C432.105 43.1508 432.102 42.797 432.167 42.4527C432.232 42.1084 432.365 41.7803 432.557 41.4871C432.748 41.1939 432.996 40.9415 433.286 40.7441L492.333 0.463835C492.918 0.0651969 493.637 -0.0849506 494.332 0.0463897C495.028 0.17773 495.642 0.579811 496.042 1.16427L511.017 23.1185C513.788 27.1805 515.731 31.7485 516.736 36.5616C517.742 41.3747 517.789 46.3387 516.875 51.1701C515.962 56.0015 514.106 60.6056 511.413 64.7196C508.72 68.8335 505.243 72.3768 501.181 75.1469Z" fill="#0CBC8B"/>
<path d="M471.65 32.8781L480.619 37.9395C480.68 37.974 480.749 37.9932 480.819 37.9953C480.889 37.9975 480.959 37.9825 481.022 37.9518L490.276 33.4317C490.349 33.3966 490.43 33.3823 490.51 33.3906C490.59 33.3989 490.667 33.4294 490.73 33.4786C490.794 33.5277 490.843 33.5938 490.872 33.6692C490.9 33.7446 490.907 33.8265 490.892 33.9056L488.85 43.9998C488.836 44.0687 488.839 44.14 488.859 44.2076C488.878 44.2751 488.914 44.3369 488.963 44.3875L496.121 51.7918C496.177 51.8499 496.216 51.9225 496.233 52.0016C496.25 52.0806 496.245 52.1629 496.218 52.239C496.19 52.3152 496.142 52.3822 496.079 52.4324C496.016 52.4827 495.939 52.5143 495.859 52.5235L485.627 53.7026C485.558 53.7106 485.491 53.7354 485.433 53.7751C485.374 53.8147 485.327 53.8679 485.294 53.9301L480.46 63.0291C480.422 63.1003 480.365 63.1595 480.295 63.2C480.225 63.2404 480.145 63.2606 480.064 63.2581C479.983 63.2557 479.905 63.2307 479.837 63.186C479.77 63.1414 479.717 63.0788 479.683 63.0054L475.401 53.6391C475.372 53.575 475.328 53.5191 475.272 53.476C475.217 53.4329 475.151 53.404 475.082 53.3917L464.94 51.6089C464.861 51.5949 464.787 51.5589 464.726 51.505C464.666 51.4511 464.622 51.3813 464.599 51.3037C464.577 51.2261 464.576 51.1436 464.598 51.0657C464.62 50.9878 464.663 50.9176 464.722 50.8629L472.305 43.8965C472.356 43.8488 472.396 43.7895 472.419 43.7235C472.443 43.6575 472.45 43.5868 472.441 43.5174L471.002 33.3198C470.989 33.2387 471 33.1556 471.032 33.0802C471.065 33.0048 471.118 32.9402 471.186 32.8939C471.254 32.8477 471.334 32.8217 471.416 32.8189C471.498 32.8161 471.579 32.8366 471.65 32.8781Z" fill="#FAFAFA"/>
<path d="M503.621 64.3636L496.134 69.4686L494.617 70.4998L488.646 74.5754C488.646 74.5754 529.33 111.757 527.391 156.889L545.238 144.717L546.755 143.685L566.114 130.481C523.384 115.812 503.621 64.3636 503.621 64.3636Z" fill="#0CBC8B"/>
<path d="M571.379 116.094L512.079 156.54C510.483 157.629 510.071 159.806 511.16 161.403L524.545 181.027C525.634 182.624 527.811 183.035 529.408 181.946L588.708 141.5C590.304 140.411 590.716 138.234 589.627 136.638L576.242 117.014C575.153 115.417 572.976 115.005 571.379 116.094Z" fill="#0CBC8B"/>
<path d="M458.199 83.6914C455.332 85.6533 451.994 86.8164 448.529 87.0611C445.064 87.3059 441.596 86.6234 438.482 85.0839C435.368 83.5444 432.72 81.2034 430.81 78.3016C428.9 75.3997 427.798 72.0416 427.616 68.5725C427.434 65.1034 428.179 61.6485 429.774 58.5627C431.37 55.477 433.759 52.8718 436.695 51.0149C439.63 49.1581 443.008 48.1165 446.48 47.9974C449.952 47.8782 453.393 48.6857 456.449 50.3369C459.401 51.9303 461.893 54.256 463.686 57.0905C465.479 59.9251 466.514 63.1732 466.689 66.5229C466.865 69.8725 466.176 73.211 464.689 76.2177C463.202 79.2243 460.967 81.798 458.199 83.6914ZM439.971 57.0578C437.68 58.6224 435.964 60.8929 435.084 63.5234C434.203 66.1539 434.207 69.0001 435.094 71.6283C435.981 74.2566 437.703 76.5227 439.998 78.0814C442.292 79.6402 445.034 80.406 447.804 80.2622C450.574 80.1184 453.221 79.0729 455.342 77.285C457.463 75.4971 458.941 73.0649 459.552 70.3589C460.162 67.6529 459.871 64.8216 458.723 62.2964C457.575 59.7712 455.633 57.6906 453.192 56.3716C451.137 55.2647 448.817 54.7433 446.486 54.8643C444.154 54.9853 441.901 55.744 439.971 57.0578Z" fill="#0CBC8B"/>
<path d="M524.409 38.5405C523.7 39.0239 522.96 39.4605 522.194 39.8475C517.562 42.1867 512.191 42.5902 507.262 40.9693C502.333 39.3484 498.25 35.8358 495.911 31.2044C493.572 26.5729 493.168 21.2019 494.789 16.2729C496.41 11.3439 499.923 7.26064 504.554 4.92146C508.987 2.68427 514.104 2.21617 518.869 3.61205C523.635 5.00792 527.691 8.16332 530.216 12.4387C532.741 16.7141 533.545 21.7895 532.467 26.6364C531.389 31.4832 528.508 35.7387 524.409 38.5405ZM506.188 11.8955C504.173 13.2758 502.598 15.2073 501.652 17.459C500.706 19.7108 500.428 22.1874 500.853 24.5927C501.277 26.998 502.385 29.2302 504.045 31.0222C505.705 32.8142 507.845 34.0902 510.211 34.6976C512.577 35.305 515.067 35.218 517.385 34.4471C519.703 33.6762 521.749 32.254 523.28 30.3506C524.81 28.4472 525.76 26.1431 526.016 23.7141C526.271 21.285 525.822 18.8338 524.721 16.6535C523.968 15.1632 522.93 13.8358 521.664 12.747C520.398 11.6582 518.931 10.8293 517.345 10.3078C515.759 9.78619 514.086 9.58212 512.421 9.7072C510.756 9.83229 509.132 10.2841 507.642 11.0368C507.139 11.291 506.654 11.5778 506.188 11.8955Z" fill="#0CBC8B"/>
<path d="M520.31 99.046C519.77 98.3049 519.487 97.4077 519.504 96.4909C519.522 95.5741 519.838 94.688 520.405 93.9676C520.341 93.9316 520.158 93.8899 520.226 93.778L517.071 95.3135C516.151 95.7863 515.091 95.9101 514.087 95.662C513.083 95.4139 512.202 94.8106 511.609 93.9638C511.049 93.1086 510.828 92.0763 510.986 91.0669C511.145 90.0576 511.673 89.1431 512.467 88.5006C512.428 88.4883 512.408 88.4456 512.372 88.421L511.075 89.0522C510.206 89.494 509.212 89.6221 508.26 89.4148C507.307 89.2076 506.456 88.6777 505.85 87.9149C505.479 87.4287 505.221 86.8663 505.095 86.2684C504.968 85.6704 504.975 85.0518 505.117 84.4572C505.258 83.8625 505.53 83.3067 505.912 82.8297C506.294 82.3528 506.778 81.9666 507.327 81.6991L510.319 80.2423C510.309 80.2281 510.289 80.2262 510.281 80.2091C510.272 80.1921 510.281 80.1646 510.275 80.1428C509.365 80.3556 508.411 80.2533 507.567 79.8526C506.723 79.4519 506.04 78.7766 505.631 77.9372C504.432 75.8369 506.204 73.4436 508.139 72.5025L514.464 70.0097C515.44 69.6255 516.496 69.4885 517.538 69.6111C518.58 69.7336 519.575 70.1118 520.436 70.712C527.887 75.9004 547.026 89.9157 540.85 92.9212L525.646 100.32C524.741 100.731 523.726 100.828 522.76 100.598C521.793 100.367 520.932 99.8211 520.31 99.046Z" fill="#E98862"/>
<path d="M52.5411 588H608.083C608.334 588 608.575 587.9 608.753 587.722C608.931 587.545 609.031 587.304 609.031 587.052C609.031 586.801 608.931 586.56 608.753 586.382C608.575 586.204 608.334 586.104 608.083 586.104H52.5411C52.2897 586.104 52.0486 586.204 51.8709 586.382C51.6931 586.56 51.5933 586.801 51.5933 587.052C51.5933 587.304 51.6931 587.545 51.8709 587.722C52.0486 587.9 52.2897 588 52.5411 588Z" fill="#292A2E"/>
<path d="M29.4387 381.229L22.3765 383.989L32.3377 409.474L39.3999 406.714L29.4387 381.229Z" fill="#367CFF"/>
<path d="M602.279 303.178L584.023 323.56L589.672 328.619L607.927 308.236L602.279 303.178Z" fill="#367CFF"/>
<path d="M518.586 394.404L514.04 400.473L535.94 416.878L540.486 410.808L518.586 394.404Z" fill="#0CBC8B"/>
<path d="M189.465 177.726L169.538 196.478L174.734 202L194.662 183.248L189.465 177.726Z" fill="#367CFF"/>
<path d="M410.188 145.918L403.614 149.697L417.252 173.419L423.826 169.64L410.188 145.918Z" fill="#367CFF"/>
<path d="M142.063 472.2L127.46 495.341L133.872 499.387L148.475 476.247L142.063 472.2Z" fill="#0CBC8B"/>
<path d="M509.491 527.803L497.262 552.281L504.045 555.67L516.274 531.192L509.491 527.803Z" fill="#0CBC8B"/>
<path d="M608.733 463.399L601.471 465.576L609.328 491.786L616.59 489.609L608.733 463.399Z" fill="#367CFF"/>
<path d="M77.4534 535.564L73.23 541.865L95.9682 557.106L100.192 550.805L77.4534 535.564Z" fill="#367CFF"/>
<path d="M320.23 86.9658L313.656 90.7448L327.293 114.467L333.867 110.688L320.23 86.9658Z" fill="#0CBC8B"/>
</svg>
