<svg width="702" height="539" viewBox="0 0 702 539" fill="none" xmlns="http://www.w3.org/2000/svg">
<path d="M373.172 66.6877L13.3008 534.373H535.594L616.175 144.661" fill="#F3F5FD"/>
<path d="M701.003 254.204H514.666C515.721 247.117 519.593 240.545 525.509 237.338C532.827 233.37 541.72 234.541 549.976 235.567C558.233 236.592 567.345 237.164 574.121 232.335C577.531 229.905 579.942 226.362 582.704 223.211C590.594 214.194 603.037 208.026 614.58 211.21C620.389 212.811 625.347 216.556 630.854 219.003C636.641 221.563 642.967 222.662 649.277 222.206C655.783 221.723 662.257 219.592 668.71 220.548C676.891 221.767 683.592 227.78 688.445 234.489C693.041 240.84 696.321 247.005 701.003 254.204Z" fill="#DEE8F5"/>
<path d="M245.522 255.371H6.26069C5.16647 253.246 4.52851 250.916 4.38787 248.531C4.24722 246.145 4.607 243.756 5.44407 241.518C6.44061 239.01 8.01998 236.776 10.0511 235.002C12.0823 233.228 14.5067 231.964 17.1231 231.316C24.9341 229.459 33.7632 233.267 40.8835 229.56C46.4086 226.681 48.9612 220.181 50.1385 214.062C51.3158 207.944 51.6466 201.479 54.6143 195.999C59.6018 186.799 71.4422 182.689 81.6663 184.882C91.8904 187.075 100.381 194.533 105.972 203.378C108.272 207.016 110.361 211.125 114.151 213.156C118.526 215.498 123.972 214.383 128.466 212.285C132.959 210.188 137.04 207.174 141.744 205.615C151.242 202.468 162.598 206.311 168.245 214.583C172.284 220.496 173.975 228.637 180.317 231.95C182.931 233.313 185.96 233.6 188.902 233.67C200.642 233.955 212.71 231.217 223.943 234.638C228.881 236.217 233.392 238.907 237.132 242.5C240.872 246.094 243.742 250.496 245.522 255.371Z" fill="#DEE8F5"/>
<path d="M532.521 134.602C538.783 114.205 520.197 90.3874 491.009 81.4031C461.821 72.4188 433.083 81.6704 426.822 102.067C420.561 122.464 439.147 146.282 468.335 155.266C497.523 164.25 526.26 154.999 532.521 134.602Z" fill="#D7E8F4"/>
<path d="M634.126 148.847C631.774 156.508 615.842 159.266 591.424 157.62C561.996 155.644 520.237 147.262 475.056 133.355C429.874 119.447 390.636 102.897 365.173 87.9833C344.047 75.6056 332.415 64.3639 334.767 56.7052C337.533 47.6946 359.102 45.4669 391.178 49.2162C419.216 52.4933 455.283 60.3339 493.831 72.2005C532.379 84.067 566.623 97.8669 591.656 110.925C620.297 125.862 636.892 139.837 634.126 148.847Z" fill="#C1D8ED"/>
<path d="M590.34 133.717C562.915 131.873 523.995 124.063 481.889 111.102C439.782 98.1422 403.208 82.7158 379.479 68.8171C385.125 55.3045 393.358 43.0298 403.715 32.6859C431.915 4.51862 474.076 -7.55921 514.496 4.88318C554.916 17.3256 583.024 51.0316 590.555 90.1993C593.319 104.58 593.246 119.364 590.34 133.717Z" fill="#D7E8F4"/>
<path d="M377.882 170.087L381.663 165.143C381.663 165.143 378.009 157.966 370.06 157.974C367.425 157.974 367.381 160.959 368.162 161.431C370.741 162.991 373.418 164.234 374.773 166.443C373.616 166.223 372.013 166.015 371.903 166.529C371.615 167.882 377.882 170.087 377.882 170.087Z" fill="#E98862"/>
<path d="M391.725 215.577L381.901 209.688L394.477 188.649L374.206 170.098L381.93 161.635L405.652 183.345C406.626 184.236 407.263 185.437 407.455 186.745C407.646 188.053 407.38 189.386 406.702 190.52L391.725 215.577Z" fill="#FF4F28"/>
<path d="M356.512 355.847L355.127 344.893C359.267 344.367 364.232 343.702 365.034 343.541L364.908 343.571L367.578 354.285C367.257 354.362 366.281 354.606 356.512 355.847Z" fill="#E98862"/>
<path d="M355.194 370.214C355.255 370.505 355.375 370.78 355.547 371.022C355.719 371.264 355.939 371.468 356.193 371.621C356.447 371.774 356.73 371.873 357.024 371.912C357.318 371.951 357.616 371.928 357.901 371.846C358.296 371.732 358.651 371.508 358.923 371.199C359.195 370.89 359.373 370.51 359.437 370.104L361.07 356.648C361.101 356.388 361.075 356.123 360.994 355.874C360.913 355.624 360.78 355.395 360.602 355.202C359.048 353.718 358.011 351.773 357.643 349.654C357.423 347.99 357.675 346.298 358.37 344.771C358.441 344.634 358.473 344.48 358.46 344.326C358.448 344.172 358.392 344.025 358.299 343.902C358.207 343.779 358.081 343.684 357.937 343.63C357.792 343.576 357.636 343.564 357.485 343.595L351.336 344.858C351.155 344.896 350.983 344.968 350.83 345.073C350.676 345.177 350.545 345.31 350.444 345.465C350.342 345.62 350.272 345.794 350.237 345.976C350.203 346.158 350.205 346.345 350.243 346.527L355.194 370.214Z" fill="#C1D8ED"/>
<path d="M462.413 388.079C462.262 383.903 462.045 378.89 461.958 378.077L461.975 378.204L472.871 376.505C472.922 376.832 473.075 377.827 473.433 387.68L462.413 388.079Z" fill="#E98862"/>
<path d="M487.61 390.282C487.904 390.247 488.188 390.152 488.444 390.002C488.7 389.853 488.923 389.652 489.098 389.412C489.273 389.173 489.397 388.899 489.462 388.61C489.527 388.32 489.532 388.02 489.476 387.728C489.398 387.324 489.206 386.951 488.924 386.652C488.641 386.353 488.279 386.141 487.88 386.041L474.643 383.207C474.387 383.153 474.122 383.155 473.866 383.213C473.611 383.271 473.371 383.384 473.163 383.544C471.547 384.96 469.519 385.82 467.379 385.997C465.704 386.067 464.043 385.664 462.586 384.834C462.456 384.751 462.306 384.706 462.152 384.704C461.998 384.703 461.847 384.745 461.716 384.827C461.585 384.908 461.48 385.025 461.413 385.164C461.346 385.303 461.32 385.458 461.338 385.611L462.043 391.857C462.063 392.041 462.12 392.219 462.21 392.381C462.3 392.543 462.421 392.686 462.566 392.801C462.711 392.917 462.877 393.002 463.055 393.053C463.233 393.103 463.42 393.118 463.604 393.097L487.61 390.282Z" fill="#C1D8ED"/>
<path d="M464.271 314.007C458.647 303.429 425.284 259.003 421.705 254.203L386.61 272.916C386.61 272.916 396.717 324.887 396.847 326.409L361.219 340.379L365.861 359.272L411.906 346.165C414.441 345.64 416.712 344.241 418.322 342.211C419.932 340.181 420.778 337.649 420.714 335.057C420.714 335.057 415.314 288.704 415.238 287.839L443.977 319.542L458.413 382.432L477.645 379.67C477.645 379.67 466.545 318.286 464.271 314.007Z" fill="#262626"/>
<path d="M313.463 194.054L308.829 198.211C308.829 198.211 301.309 193.941 300.707 186.003C300.508 183.373 303.474 183.101 304.004 183.843C305.755 186.297 307.292 190.049 309.597 191.231C309.288 190.091 308.958 188.506 309.461 188.36C310.786 187.966 313.463 194.054 313.463 194.054Z" fill="#E98862"/>
<path d="M384.112 276.905C380.54 272.495 381.758 265.565 375.381 256.556C369.005 247.548 352.577 241.899 354.544 230.355C355.115 227.009 357.606 223.336 361.723 220.413C363.731 222.601 378.341 212.263 376.783 209.824C377.348 209.435 377.783 209.135 378.062 208.958C392.714 199.486 397.927 220.12 406.209 232.12C415.892 246.171 421.507 246.13 422.67 251.705C423.793 257.107 389.727 283.841 384.112 276.905Z" fill="#FF4F28"/>
<path d="M375.742 219.705C370.713 223.793 363.731 222.601 361.723 220.413C361.73 220.406 361.73 220.4 361.737 220.4C366.929 216.726 373.721 211.922 376.783 209.824C378.341 212.263 379.512 216.638 375.742 219.705Z" fill="#E98862"/>
<path d="M359.563 236.567L328.155 228.117C326.857 227.767 325.723 226.971 324.953 225.868L304.809 197.098L314.185 190.516L333.135 217.583L362.533 225.494L359.563 236.567Z" fill="#FF4F28"/>
<path d="M363.634 220.687C363.634 220.687 366.097 216.822 359.88 207.672L366.388 202.194C366.388 202.194 370.441 211.264 375.666 211.908L363.634 220.687Z" fill="#E98862"/>
<g opacity="0.15">
<path d="M373.158 210.952L364.497 209.752L369.214 207.01C370.272 208.559 371.609 209.896 373.158 210.952Z" fill="black"/>
</g>
<path d="M353.647 206.289C355.798 208.915 358.946 210.772 362.043 210.257C365.468 209.782 368.725 208.475 371.53 206.449C379.122 201.279 367.289 184.044 361.517 182.667C355.745 181.291 345.913 189.815 347.896 196.47C348.921 199.912 351.599 203.788 353.647 206.289Z" fill="#E98862"/>
<path d="M370.035 186.596C370.035 186.596 361.184 174.597 348.842 185.779C346.9 187.682 345.611 190.153 345.159 192.836C343.949 192.008 342.52 191.563 341.055 191.557C339.59 191.551 338.156 191.985 336.94 192.802C335.723 193.619 334.779 194.782 334.229 196.142C333.678 197.502 333.548 198.995 333.853 200.43C334.158 201.865 334.886 203.175 335.942 204.192C336.998 205.209 338.334 205.885 339.777 206.135C341.221 206.384 342.706 206.195 344.041 205.592C345.377 204.988 346.501 203.998 347.269 202.749C347.386 202.926 347.504 203.103 347.632 203.28C353.013 210.769 361.9 211.001 361.9 211.001C361.9 211.001 362.916 208.641 354.99 196.112C358.208 194.633 365.444 191.028 370.035 186.596Z" fill="#0F1011"/>
<path d="M363.393 197.682C363.812 197.682 364.151 197.342 364.151 196.923C364.151 196.504 363.812 196.164 363.393 196.164C362.974 196.164 362.635 196.504 362.635 196.923C362.635 197.342 362.974 197.682 363.393 197.682Z" fill="#0F1011"/>
<path d="M368.355 194.302C368.773 194.302 369.113 193.962 369.113 193.543C369.113 193.124 368.773 192.784 368.355 192.784C367.936 192.784 367.597 193.124 367.597 193.543C367.597 193.962 367.936 194.302 368.355 194.302Z" fill="#0F1011"/>
<path d="M366.766 192.507C366.687 192.507 366.61 192.48 366.548 192.432C366.485 192.383 366.441 192.315 366.421 192.238C366.401 192.162 366.407 192.081 366.439 192.008C366.47 191.935 366.525 191.875 366.594 191.837L368.354 190.867C368.436 190.83 368.529 190.825 368.615 190.853C368.7 190.882 368.772 190.942 368.815 191.021C368.858 191.1 368.87 191.193 368.847 191.281C368.825 191.368 368.77 191.444 368.694 191.493L366.936 192.459C366.884 192.489 366.826 192.505 366.766 192.507Z" fill="#0F1011"/>
<path d="M361.117 196.579C361.045 196.579 360.975 196.558 360.916 196.518C360.857 196.477 360.812 196.42 360.785 196.354C360.759 196.287 360.754 196.214 360.769 196.144C360.785 196.075 360.821 196.011 360.873 195.962L362.361 194.57C362.431 194.51 362.521 194.479 362.613 194.484C362.705 194.489 362.792 194.529 362.854 194.597C362.917 194.664 362.952 194.753 362.95 194.845C362.949 194.937 362.912 195.026 362.848 195.091L361.36 196.483C361.294 196.545 361.207 196.579 361.117 196.579Z" fill="#0F1011"/>
<path d="M366.642 201.951C368.109 201.302 369.447 200.391 370.589 199.262C370.589 199.262 371.484 200.875 369.646 202.124C367.809 203.372 366.642 201.951 366.642 201.951Z" fill="white"/>
<path d="M360.876 200.485C361.116 200.835 361.285 201.228 361.373 201.643C361.461 202.058 361.466 202.486 361.388 202.903C361.31 203.32 361.15 203.718 360.918 204.073C360.686 204.428 360.387 204.733 360.036 204.972C359.686 205.21 359.292 205.377 358.877 205.463C358.463 205.549 358.035 205.551 357.619 205.471C357.203 205.39 356.807 205.228 356.454 204.994C356.101 204.76 355.797 204.458 355.561 204.106C355.317 203.759 355.145 203.366 355.055 202.951C354.965 202.536 354.96 202.107 355.039 201.69C355.118 201.273 355.281 200.876 355.516 200.523C355.752 200.17 356.056 199.868 356.411 199.635C358.367 198.439 359.878 199.016 360.876 200.485Z" fill="#E98862"/>
<g opacity="0.15">
<path d="M368.394 198.925C368.34 198.956 368.275 198.967 368.214 198.955C368.152 198.943 368.096 198.909 368.057 198.859C368.019 198.81 367.999 198.748 368.002 198.685C368.005 198.621 368.031 198.562 368.074 198.516L369.182 197.345L367.059 195.785C367.005 195.743 366.969 195.682 366.959 195.614C366.949 195.546 366.966 195.477 367.007 195.421C367.047 195.366 367.108 195.329 367.176 195.318C367.243 195.306 367.313 195.322 367.369 195.362L369.73 197.097C369.76 197.119 369.785 197.148 369.803 197.18C369.821 197.212 369.832 197.248 369.836 197.285C369.839 197.322 369.835 197.36 369.822 197.395C369.81 197.43 369.791 197.462 369.765 197.489L368.454 198.878C368.436 198.896 368.416 198.912 368.394 198.925Z" fill="black"/>
</g>
<path d="M75.6737 402.584C75.4607 403.013 75.2416 403.44 75.0238 403.868C74.434 405.03 73.8234 406.186 73.1919 407.338C72.9877 407.711 72.7897 408.087 72.5794 408.458C71.7519 409.94 70.8944 411.414 70.007 412.879C69.907 413.045 69.8029 413.209 69.7008 413.374C68.7692 414.894 67.8103 416.407 66.8113 417.909L33.6523 468.148H62.5914L95.7531 417.906C96.7521 416.407 97.7096 414.893 98.6406 413.374C98.7433 413.207 98.8488 413.041 98.9502 412.875C99.0148 412.768 99.0863 412.662 99.1475 412.555C99.9689 411.196 100.756 409.829 101.522 408.454C101.729 408.083 101.93 407.71 102.134 407.338C102.764 406.184 103.376 405.026 103.972 403.862C104.188 403.436 104.407 403.01 104.618 402.583C105.363 401.084 106.087 399.576 106.769 398.058H77.8242C77.1423 399.578 76.4223 401.083 75.6737 402.584Z" fill="#9EBCEA"/>
<path d="M143.522 354.146H114.582V468.151H136.353V497.932H114.582V535.519H143.522V497.932H165.292V468.151H143.522V354.146Z" fill="#9EBCEA"/>
<path d="M220.927 507.016C221.159 507.035 221.394 507.049 221.63 507.061C221.791 507.069 221.946 507.086 222.106 507.091C222.366 507.1 222.628 507.104 222.891 507.104H251.833C251.404 507.104 250.988 507.083 250.57 507.061C250.334 507.049 250.098 507.035 249.865 507.016C249.57 506.992 249.279 506.959 248.99 506.924C248.765 506.896 248.54 506.87 248.319 506.836C248 506.787 247.687 506.727 247.377 506.664C247.213 506.631 247.046 506.602 246.884 506.565C246.481 506.472 246.085 506.366 245.696 506.249C245.628 506.229 245.56 506.214 245.492 506.194C245.029 506.05 244.575 505.888 244.131 505.709C244.003 505.658 243.88 505.597 243.754 505.542C243.447 505.411 243.141 505.277 242.847 505.129C242.354 504.884 241.871 504.62 241.404 504.329C241.36 504.302 241.319 504.27 241.277 504.242C240.854 503.974 240.442 503.686 240.039 503.38C239.822 503.215 239.611 503.04 239.399 502.86C239.236 502.723 239.07 502.593 238.911 502.451C238.689 502.252 238.474 502.037 238.258 501.825C238.114 501.683 237.967 501.552 237.825 501.401C237.59 501.154 237.364 500.89 237.136 500.628C237.024 500.498 236.908 500.376 236.796 500.243C236.463 499.839 236.14 499.417 235.826 498.977C235.513 498.538 235.209 498.08 234.916 497.603C234.818 497.444 234.726 497.273 234.631 497.11C234.439 496.785 234.247 496.461 234.064 496.12C233.955 495.916 233.853 495.702 233.747 495.493C233.586 495.176 233.424 494.86 233.27 494.53C233.161 494.297 233.059 494.053 232.954 493.813C232.786 493.431 232.614 493.053 232.458 492.654C232.245 492.118 232.039 491.555 231.838 490.981C231.791 490.844 231.745 490.714 231.702 490.579C231.506 490.003 231.314 489.413 231.129 488.799C231.108 488.725 231.086 488.646 231.061 488.571C230.894 488.006 230.731 487.423 230.574 486.825C230.536 486.68 230.497 486.536 230.459 486.389C230.29 485.732 230.127 485.057 229.969 484.363C229.94 484.236 229.913 484.104 229.884 483.974C229.745 483.349 229.611 482.708 229.482 482.053C229.454 481.912 229.425 481.773 229.397 481.631C229.306 481.154 229.221 480.66 229.134 480.169C229.066 479.775 228.992 479.388 228.924 478.983C228.843 478.49 228.768 477.976 228.691 477.469C228.628 477.06 228.564 476.659 228.505 476.242C228.428 475.706 228.36 475.148 228.289 474.596C228.235 474.182 228.179 473.779 228.129 473.356C228.061 472.771 227.993 472.164 227.932 471.563C227.887 471.148 227.838 470.745 227.795 470.322C227.727 469.656 227.67 468.966 227.61 468.277C227.576 467.898 227.542 467.528 227.508 467.145C227.44 466.338 227.383 465.505 227.325 464.671C227.306 464.384 227.282 464.108 227.263 463.818C227.189 462.685 227.121 461.529 227.059 460.349C227.048 460.113 227.039 459.866 227.028 459.628C226.983 458.674 226.939 457.714 226.903 456.728C226.899 456.619 226.897 456.503 226.892 456.393C226.857 455.378 226.827 454.347 226.801 453.299C226.792 452.938 226.785 452.573 226.777 452.208C226.759 451.354 226.744 450.489 226.733 449.613C226.728 449.248 226.723 448.886 226.719 448.518C226.707 447.305 226.698 446.079 226.698 444.826C226.698 443.522 226.707 442.244 226.72 440.983C226.724 440.574 226.732 440.173 226.738 439.767C226.75 438.924 226.763 438.083 226.782 437.26C226.792 436.792 226.805 436.333 226.817 435.873C226.836 435.123 226.858 434.378 226.885 433.645C226.901 433.178 226.919 432.715 226.937 432.256C226.965 431.542 226.995 430.836 227.029 430.139C227.05 429.694 227.07 429.247 227.093 428.808C227.132 428.091 227.173 427.388 227.217 426.688C227.242 426.297 227.264 425.901 227.291 425.516C227.347 424.676 227.409 423.854 227.474 423.041C227.492 422.817 227.508 422.586 227.525 422.365C227.612 421.331 227.705 420.319 227.804 419.328C227.819 419.192 227.834 419.06 227.848 418.923C227.931 418.116 228.019 417.324 228.111 416.546C228.138 416.322 228.165 416.097 228.192 415.875C228.3 414.999 228.413 414.136 228.533 413.298C228.547 413.201 228.562 413.107 228.575 413.01C228.686 412.256 228.801 411.521 228.92 410.799C228.954 410.594 228.988 410.39 229.022 410.185C229.159 409.393 229.295 408.618 229.444 407.862C229.456 407.804 229.468 407.748 229.479 407.691C229.615 406.988 229.763 406.306 229.912 405.637C229.953 405.453 229.994 405.269 230.036 405.087C230.149 404.597 230.267 404.123 230.386 403.65C230.458 403.362 230.529 403.07 230.603 402.79C230.729 402.313 230.861 401.857 230.993 401.402C231.061 401.173 231.123 400.936 231.191 400.712C231.379 400.09 231.573 399.489 231.774 398.906C231.789 398.861 231.804 398.813 231.819 398.77C232.046 398.116 232.28 397.487 232.522 396.882C232.738 396.336 232.966 395.815 233.198 395.302C233.266 395.155 233.334 395.011 233.402 394.867C233.586 394.476 233.775 394.095 233.968 393.722C234.032 393.599 234.094 393.474 234.159 393.354C234.411 392.885 234.67 392.431 234.936 391.991C235.004 391.881 235.072 391.778 235.14 391.671C235.355 391.33 235.572 390.995 235.797 390.672C235.9 390.524 236.005 390.382 236.11 390.239C236.31 389.966 236.514 389.694 236.723 389.434C236.835 389.293 236.948 389.153 237.063 389.016C237.283 388.753 237.509 388.501 237.737 388.253C237.841 388.141 237.941 388.025 238.048 387.912C238.704 387.232 239.409 386.602 240.158 386.026C240.276 385.937 240.396 385.855 240.514 385.768C240.773 385.581 241.034 385.398 241.301 385.223C241.437 385.132 241.582 385.045 241.725 384.958C241.985 384.799 242.25 384.648 242.519 384.505C242.66 384.43 242.801 384.353 242.944 384.28C243.256 384.124 243.573 383.979 243.897 383.842C243.999 383.798 244.101 383.749 244.201 383.705C244.627 383.532 245.061 383.375 245.503 383.235C245.61 383.201 245.721 383.174 245.829 383.142C246.17 383.04 246.514 382.945 246.864 382.862C247.025 382.825 247.189 382.794 247.352 382.758C247.662 382.693 247.977 382.634 248.295 382.583C248.468 382.556 248.641 382.529 248.816 382.506C249.15 382.462 249.49 382.426 249.832 382.398C249.989 382.384 250.144 382.367 250.304 382.357C250.804 382.325 251.311 382.304 251.829 382.304H222.893C222.376 382.304 221.872 382.325 221.369 382.357C221.209 382.367 221.054 382.384 220.897 382.398C220.557 382.426 220.217 382.462 219.88 382.506C219.706 382.529 219.533 382.556 219.36 382.583C219.043 382.634 218.728 382.693 218.416 382.758C218.253 382.792 218.091 382.826 217.93 382.862C217.58 382.945 217.235 383.04 216.895 383.142C216.787 383.174 216.675 383.201 216.568 383.235C216.125 383.375 215.692 383.532 215.266 383.705C215.162 383.748 215.062 383.797 214.96 383.842C214.639 383.978 214.322 384.123 214.011 384.279C213.867 384.347 213.727 384.428 213.586 384.504C213.317 384.648 213.052 384.8 212.791 384.958C212.649 385.044 212.508 385.131 212.368 385.221C212.102 385.393 211.84 385.576 211.582 385.766C211.463 385.852 211.342 385.935 211.225 386.025C210.858 386.306 210.497 386.598 210.148 386.911L210.142 386.915C209.79 387.229 209.45 387.564 209.115 387.91C209.008 388.019 208.906 388.137 208.802 388.25C208.574 388.496 208.35 388.749 208.131 389.01C208.015 389.147 207.901 389.289 207.79 389.431C207.583 389.691 207.379 389.958 207.178 390.232C207.073 390.377 206.967 390.52 206.864 390.668C206.64 390.989 206.422 391.323 206.209 391.663C206.141 391.772 206.073 391.876 206.005 391.987C205.989 392.012 205.973 392.035 205.957 392.06C205.707 392.475 205.464 392.908 205.227 393.35C205.163 393.47 205.1 393.596 205.037 393.718C204.844 394.09 204.655 394.472 204.471 394.862C204.403 395.007 204.335 395.151 204.267 395.298C204.034 395.811 203.807 396.334 203.591 396.878C203.567 396.936 203.544 396.995 203.523 397.053C203.306 397.604 203.095 398.176 202.89 398.767C202.877 398.805 202.865 398.846 202.852 398.882C202.649 399.473 202.452 400.082 202.262 400.711C202.194 400.933 202.13 401.169 202.064 401.397C201.932 401.854 201.8 402.313 201.674 402.789C201.6 403.068 201.53 403.357 201.459 403.642C201.38 403.956 201.297 404.26 201.221 404.583C201.182 404.748 201.145 404.923 201.106 405.089C201.065 405.268 201.024 405.449 200.984 405.631C200.834 406.305 200.688 406.994 200.548 407.699C200.538 407.753 200.526 407.804 200.516 407.857C200.368 408.613 200.228 409.393 200.093 410.187C200.058 410.388 200.025 410.589 199.992 410.792C199.872 411.516 199.757 412.253 199.646 413.009C199.633 413.106 199.617 413.199 199.604 413.297C199.484 414.137 199.371 415 199.263 415.878C199.236 416.097 199.21 416.318 199.184 416.539C199.091 417.316 199.003 418.108 198.92 418.914C198.905 419.05 198.89 419.186 198.876 419.331C198.871 419.383 198.865 419.432 198.859 419.485C198.766 420.424 198.679 421.383 198.597 422.363C198.579 422.585 198.563 422.816 198.546 423.039C198.478 423.853 198.418 424.675 198.362 425.515C198.336 425.899 198.313 426.293 198.289 426.683C198.246 427.386 198.203 428.093 198.165 428.813C198.142 429.247 198.121 429.688 198.101 430.129C198.068 430.83 198.037 431.539 198.008 432.256C197.99 432.716 197.973 433.178 197.957 433.644C197.932 434.377 197.91 435.121 197.889 435.871C197.877 436.332 197.864 436.791 197.854 437.258C197.836 438.082 197.823 438.922 197.81 439.766C197.805 440.175 197.797 440.571 197.792 440.982C197.779 442.242 197.771 443.521 197.771 444.825C197.771 446.078 197.779 447.304 197.791 448.517C197.795 448.885 197.8 449.247 197.806 449.611C197.817 450.487 197.832 451.352 197.85 452.207C197.857 452.571 197.865 452.936 197.873 453.297C197.899 454.342 197.93 455.374 197.965 456.392C197.969 456.503 197.972 456.617 197.976 456.727V456.803C198.011 457.765 198.055 458.701 198.099 459.634C198.11 459.869 198.118 460.111 198.13 460.347C198.189 461.529 198.256 462.685 198.33 463.817C198.349 464.121 198.374 464.41 198.398 464.711C198.455 465.529 198.511 466.347 198.576 467.14C198.61 467.554 198.65 467.947 198.686 468.354C198.744 469.011 198.801 469.674 198.864 470.313C198.908 470.754 198.958 471.175 199.005 471.608C199.068 472.191 199.129 472.782 199.197 473.35C199.249 473.785 199.307 474.2 199.361 474.624C199.429 475.165 199.497 475.715 199.572 476.236C199.632 476.66 199.698 477.066 199.762 477.48C199.838 477.984 199.913 478.493 199.993 478.979C200.061 479.388 200.133 479.775 200.203 480.171C200.273 480.568 200.343 480.994 200.418 481.388C200.433 481.469 200.45 481.546 200.466 481.627C200.493 481.77 200.522 481.909 200.55 482.051C200.68 482.705 200.813 483.345 200.952 483.969C200.98 484.099 201.008 484.232 201.037 484.361C201.195 485.056 201.359 485.73 201.528 486.387C201.565 486.534 201.604 486.676 201.642 486.821C201.799 487.418 201.962 488.001 202.13 488.567C202.151 488.643 202.173 488.721 202.198 488.795C202.381 489.409 202.573 490 202.77 490.577C202.816 490.713 202.862 490.844 202.906 490.977C203.11 491.552 203.314 492.115 203.527 492.651C203.577 492.778 203.629 492.904 203.68 493.03C203.79 493.298 203.91 493.55 204.024 493.811C204.129 494.05 204.228 494.294 204.339 494.526C204.493 494.857 204.656 495.174 204.815 495.492C204.921 495.696 205.023 495.914 205.131 496.115C205.315 496.456 205.508 496.786 205.702 497.114C205.796 497.274 205.886 497.442 205.982 497.598C206.273 498.068 206.573 498.523 206.882 498.961L206.895 498.981C207.208 499.419 207.531 499.839 207.862 500.242C207.974 500.378 208.092 500.5 208.203 500.631C208.429 500.892 208.654 501.155 208.889 501.4C209.029 501.547 209.176 501.681 209.319 501.822C209.536 502.036 209.752 502.25 209.975 502.451C210.133 502.593 210.299 502.723 210.461 502.86C210.636 503.006 210.807 503.162 210.987 503.301C211.023 503.329 211.064 503.352 211.102 503.381C211.505 503.688 211.917 503.975 212.34 504.244C212.383 504.271 212.423 504.303 212.467 504.329C212.934 504.62 213.42 504.885 213.91 505.13C213.943 505.147 213.978 505.168 214.007 505.185C214.272 505.314 214.544 505.426 214.815 505.542C214.942 505.597 215.066 505.658 215.194 505.71C215.631 505.886 216.077 506.045 216.531 506.187L216.553 506.193C216.621 506.214 216.689 506.229 216.757 506.248C217.147 506.365 217.543 506.472 217.946 506.564C218.108 506.601 218.274 506.632 218.437 506.663C218.662 506.709 218.885 506.762 219.118 506.8C219.205 506.815 219.296 506.821 219.384 506.835C219.604 506.869 219.83 506.896 220.055 506.924C220.34 506.959 220.632 506.991 220.927 507.016Z" fill="#9EBCEA"/>
<path d="M314.6 462.214C314.678 461.111 314.736 459.979 314.798 458.852C314.839 458.107 314.889 457.376 314.922 456.621C314.979 455.349 315.016 454.045 315.054 452.743C315.072 452.101 315.101 451.476 315.115 450.827C315.158 448.86 315.181 446.861 315.183 444.83C315.183 443.082 315.161 441.363 315.127 439.662C315.115 439.131 315.098 438.61 315.084 438.084C315.063 437.345 315.05 436.596 315.023 435.865C315.005 435.359 314.978 434.864 314.955 434.366C314.939 433.982 314.923 433.597 314.904 433.216C314.827 431.638 314.737 430.081 314.631 428.545C314.617 428.341 314.599 428.149 314.584 427.948C314.483 426.579 314.368 425.228 314.239 423.895C314.204 423.536 314.171 423.176 314.134 422.82C313.984 421.347 313.821 419.89 313.639 418.464C313.613 418.256 313.583 418.052 313.555 417.844C313.389 416.58 313.21 415.335 313.018 414.108C312.967 413.776 312.916 413.444 312.863 413.115C312.654 411.834 312.437 410.567 312.201 409.325C312.184 409.236 312.165 409.149 312.148 409.061C312.111 408.867 312.07 408.679 312.032 408.487C311.797 407.294 311.549 406.12 311.289 404.963C311.229 404.701 311.172 404.436 311.111 404.176C310.818 402.914 310.51 401.674 310.185 400.456C310.117 400.208 310.049 399.964 309.981 399.717C309.68 398.618 309.366 397.536 309.039 396.471C308.985 396.296 308.933 396.116 308.879 395.942C308.512 394.773 308.129 393.628 307.728 392.506C307.638 392.25 307.545 391.996 307.456 391.743C307.054 390.64 306.639 389.551 306.209 388.491C306.195 388.456 306.181 388.423 306.167 388.385C306.163 388.374 306.159 388.364 306.154 388.353C305.868 387.654 305.559 386.986 305.259 386.308C305.038 385.81 304.829 385.297 304.603 384.809C304.262 384.083 303.903 383.388 303.548 382.685C303.335 382.261 303.134 381.822 302.915 381.407C302.507 380.634 302.075 379.893 301.647 379.148C301.463 378.828 301.29 378.492 301.103 378.177C300.477 377.129 299.831 376.109 299.164 375.118C298.57 374.232 297.955 373.384 297.327 372.55C297.183 372.359 297.039 372.168 296.895 371.979C296.272 371.168 295.637 370.376 294.983 369.614C294.898 369.515 294.81 369.421 294.725 369.323C294.125 368.633 293.513 367.964 292.887 367.316C292.739 367.162 292.592 367.005 292.442 366.853C291.753 366.154 291.05 365.479 290.332 364.827C290.196 364.701 290.051 364.581 289.911 364.457C289.263 363.882 288.603 363.326 287.93 362.788C287.794 362.681 287.664 362.569 287.528 362.463C287.46 362.408 287.392 362.348 287.317 362.292C286.599 361.738 285.866 361.208 285.121 360.696C284.938 360.569 284.748 360.452 284.563 360.328C283.917 359.896 283.261 359.479 282.596 359.077C282.324 358.914 282.051 358.753 281.779 358.596C281.135 358.225 280.482 357.869 279.82 357.527C279.584 357.404 279.351 357.277 279.112 357.158C279.016 357.111 278.924 357.057 278.827 357.01C278.079 356.642 277.308 356.298 276.535 355.967C276.36 355.892 276.185 355.819 276.01 355.747C275.101 355.368 274.18 355.009 273.24 354.679C273.148 354.647 273.052 354.617 272.96 354.585C272.468 354.416 271.975 354.245 271.474 354.091C271.039 353.955 270.596 353.83 270.155 353.704C270.035 353.67 269.916 353.633 269.795 353.599C268.824 353.327 267.833 353.086 266.83 352.864C266.646 352.823 266.461 352.782 266.276 352.743C265.424 352.561 264.566 352.392 263.69 352.245C263.55 352.222 263.407 352.204 263.266 352.182C263.056 352.148 262.843 352.119 262.632 352.087C261.676 351.943 260.709 351.819 259.729 351.714C259.589 351.699 259.451 351.68 259.31 351.666C258.236 351.559 257.143 351.481 256.039 351.421C255.788 351.408 255.536 351.397 255.285 351.385C254.978 351.372 254.672 351.352 254.366 351.342C253.532 351.316 252.689 351.303 251.838 351.302H222.893C224.06 351.302 225.207 351.336 226.34 351.385C226.592 351.397 226.844 351.408 227.094 351.421C228.199 351.481 229.292 351.558 230.365 351.666C230.506 351.68 230.644 351.699 230.785 351.714C231.765 351.817 232.733 351.942 233.687 352.087C233.899 352.119 234.112 352.148 234.322 352.182C235.34 352.345 236.343 352.532 237.331 352.743C237.516 352.782 237.7 352.823 237.884 352.864C238.888 353.086 239.878 353.329 240.851 353.599C240.97 353.633 241.087 353.667 241.205 353.704C242.158 353.976 243.094 354.27 244.015 354.586C244.107 354.618 244.202 354.647 244.294 354.679C245.234 355.009 246.155 355.368 247.064 355.747C247.239 355.819 247.414 355.892 247.588 355.967C248.462 356.341 249.321 356.739 250.166 357.158C250.405 357.277 250.637 357.405 250.874 357.527C251.536 357.87 252.189 358.226 252.834 358.596C253.106 358.754 253.378 358.913 253.651 359.073C254.318 359.475 254.976 359.893 255.624 360.327C255.808 360.45 255.997 360.567 256.179 360.692C256.998 361.257 257.801 361.847 258.587 362.464C258.723 362.569 258.853 362.679 258.987 362.786C259.659 363.324 260.319 363.88 260.968 364.456C261.108 364.581 261.251 364.701 261.39 364.828C262.108 365.479 262.811 366.154 263.5 366.853C263.65 367.005 263.797 367.161 263.945 367.315C264.571 367.965 265.183 368.635 265.782 369.323C265.867 369.421 265.956 369.515 266.04 369.614C266.694 370.376 267.328 371.168 267.952 371.978C268.097 372.167 268.242 372.359 268.385 372.551C269.011 373.385 269.626 374.235 270.222 375.118C270.888 376.109 271.534 377.128 272.159 378.177C272.364 378.517 272.553 378.885 272.754 379.234C273.162 379.951 273.58 380.665 273.972 381.405C274.22 381.877 274.448 382.374 274.692 382.855C275.016 383.504 275.348 384.141 275.659 384.807C275.906 385.338 276.136 385.897 276.373 386.438C276.658 387.086 276.952 387.722 277.225 388.386C277.24 388.424 277.254 388.464 277.27 388.503C277.702 389.559 278.113 390.643 278.513 391.742C278.606 391.998 278.699 392.253 278.79 392.511C279.189 393.634 279.574 394.775 279.94 395.943C279.995 396.119 280.047 396.301 280.102 396.478C280.428 397.54 280.741 398.619 281.041 399.717C281.109 399.966 281.177 400.211 281.245 400.461C281.569 401.678 281.878 402.917 282.171 404.178C282.232 404.439 282.29 404.705 282.349 404.968C282.61 406.124 282.858 407.297 283.093 408.488C283.13 408.681 283.171 408.87 283.208 409.064C283.464 410.391 283.7 411.745 283.923 413.117C283.976 413.447 284.027 413.781 284.079 414.113C284.269 415.34 284.448 416.582 284.614 417.839C284.642 418.05 284.674 418.257 284.7 418.47C284.882 419.896 285.046 421.346 285.194 422.818C285.231 423.178 285.262 423.541 285.299 423.903C285.426 425.232 285.541 426.578 285.643 427.942C285.659 428.146 285.677 428.346 285.692 428.551C285.8 430.082 285.89 431.64 285.964 433.215C285.983 433.6 285.999 433.987 286.016 434.373C286.069 435.595 286.109 436.835 286.143 438.084C286.157 438.611 286.175 439.135 286.186 439.667C286.221 441.371 286.243 443.086 286.243 444.834C286.243 446.869 286.221 448.868 286.175 450.831C286.161 451.48 286.133 452.105 286.114 452.747C286.075 454.049 286.039 455.353 285.982 456.625C285.948 457.38 285.899 458.111 285.858 458.856C285.797 459.983 285.738 461.115 285.66 462.218C285.606 462.997 285.537 463.753 285.475 464.52C285.391 465.555 285.309 466.593 285.211 467.605C285.136 468.38 285.048 469.135 284.965 469.897C284.859 470.871 284.752 471.846 284.633 472.798C284.537 473.56 284.429 474.303 284.325 475.051C284.196 475.97 284.067 476.891 283.926 477.787C283.81 478.527 283.683 479.253 283.557 479.979C283.407 480.851 283.255 481.721 283.091 482.573C282.955 483.288 282.808 483.99 282.663 484.69C282.489 485.521 282.312 486.347 282.126 487.158C281.945 487.951 281.757 488.734 281.564 489.507C281.438 490.008 281.314 490.511 281.183 491.007C280.948 491.893 280.701 492.761 280.45 493.622C280.331 494.027 280.218 494.44 280.096 494.84C279.717 496.084 279.323 497.306 278.907 498.494C278.896 498.527 278.884 498.558 278.872 498.59C278.464 499.747 278.041 500.875 277.603 501.977C277.473 502.302 277.336 502.615 277.204 502.935C276.881 503.719 276.551 504.493 276.21 505.251C276.041 505.626 275.87 505.994 275.695 506.361C275.366 507.063 275.027 507.752 274.681 508.428C274.505 508.769 274.331 509.117 274.151 509.45C273.743 510.216 273.324 510.962 272.895 511.695C272.771 511.906 272.654 512.126 272.528 512.336C271.942 513.311 271.339 514.257 270.717 515.175C260.365 530.394 244.423 538.003 222.893 538.003H251.833C273.363 538.003 289.305 530.394 299.657 515.175C300.25 514.304 300.825 513.406 301.384 512.482C301.413 512.434 301.439 512.383 301.468 512.336C301.593 512.126 301.712 511.906 301.835 511.695C302.264 510.962 302.683 510.216 303.092 509.45C303.271 509.114 303.445 508.769 303.621 508.428C303.966 507.751 304.304 507.062 304.635 506.361C304.808 505.994 304.981 505.626 305.15 505.251C305.49 504.495 305.821 503.721 306.145 502.935C306.276 502.614 306.413 502.302 306.543 501.976C306.584 501.873 306.628 501.775 306.669 501.671C307.063 500.672 307.442 499.65 307.806 498.605C307.819 498.567 307.834 498.53 307.848 498.492C308.263 497.304 308.657 496.082 309.037 494.838C309.158 494.441 309.27 494.03 309.387 493.628C309.639 492.764 309.887 491.894 310.124 491.004C310.254 490.513 310.377 490.013 310.502 489.515C310.622 489.033 310.752 488.565 310.867 488.076C310.935 487.777 310.997 487.463 311.067 487.159C311.253 486.348 311.429 485.523 311.602 484.692C311.748 483.993 311.893 483.292 312.03 482.579C312.194 481.724 312.347 480.852 312.499 479.976C312.623 479.253 312.75 478.531 312.865 477.796C313.008 476.895 313.138 475.974 313.266 475.053C313.37 474.303 313.477 473.565 313.572 472.804C313.692 471.85 313.798 470.876 313.905 469.902C313.973 469.314 314.045 468.744 314.105 468.151C314.122 467.975 314.134 467.788 314.151 467.611C314.249 466.598 314.331 465.56 314.415 464.525C314.477 463.749 314.546 462.993 314.6 462.214Z" fill="#9EBCEA"/>
<path d="M385.595 402.587C385.381 403.019 385.159 403.448 384.94 403.879C384.35 405.032 383.743 406.181 383.119 407.325C382.91 407.709 382.705 408.094 382.491 408.476C381.664 409.958 380.807 411.431 379.921 412.896C379.829 413.048 379.733 413.199 379.64 413.351C378.705 414.878 377.738 416.398 376.741 417.909L343.578 468.148H372.516L405.677 417.906C406.68 416.395 407.643 414.874 408.579 413.344C408.671 413.195 408.766 413.045 408.857 412.895C408.914 412.801 408.975 412.707 409.032 412.613C409.86 411.241 410.654 409.86 411.429 408.474C411.643 408.091 411.846 407.707 412.056 407.323C412.682 406.178 413.289 405.029 413.878 403.874C414.097 403.444 414.318 403.016 414.531 402.585C415.28 401.086 416.003 399.577 416.688 398.058H387.751C387.066 399.579 386.341 401.085 385.595 402.587Z" fill="#9EBCEA"/>
<path d="M475.218 468.151H453.438V354.146H424.499V468.151H446.279V497.932H424.499V535.519H453.438V497.932H475.218V468.151Z" fill="#9EBCEA"/>
<path d="M114.582 468.149H136.353V497.927H114.582V535.514H77.2131V497.932H0V471.254L79.3165 354.144H114.582V468.149ZM77.8242 415.056C78.242 405.299 78.5725 399.634 78.8157 398.06H77.8242C74.706 404.969 71.0235 411.607 66.814 417.909L33.6524 468.149H77.2131V437.385C77.2131 432.265 77.4172 424.821 77.8255 415.056" fill="#DEE8F5"/>
<path d="M270.217 375.109C280.904 390.989 286.245 414.229 286.242 444.828C286.242 476.504 281.067 499.951 270.718 515.169C260.369 530.387 244.427 537.996 222.894 537.997C202.022 537.997 186.285 530.138 175.682 514.42C165.079 498.701 159.78 475.504 159.786 444.828C159.786 412.826 164.939 389.236 175.245 374.059C185.561 358.885 201.443 351.297 222.892 351.293C243.756 351.293 259.531 359.232 270.217 375.109ZM242.191 492.468C246.157 482.712 248.137 466.831 248.132 444.828C248.132 422.583 246.132 406.6 242.134 396.88C238.136 387.16 231.722 382.304 222.894 382.31C213.895 382.31 207.46 387.167 203.589 396.88C199.705 406.602 197.765 422.585 197.768 444.828C197.768 467.082 199.686 483.024 203.524 492.654C207.361 502.284 213.818 507.1 222.894 507.101C231.8 507.101 238.233 502.222 242.191 492.466" fill="#DEE8F5"/>
<path d="M424.499 468.149H446.276V497.927H424.499V535.514H387.13V497.932H309.917V471.254L389.234 354.144H424.499V468.149ZM387.751 415.053C388.159 405.296 388.49 399.631 388.742 398.058H387.751C384.625 404.962 380.943 411.6 376.741 417.906L343.579 468.149H387.132V437.385C387.132 432.265 387.339 424.821 387.754 415.056" fill="#DEE8F5"/>
</svg>
