<svg width="47" height="47" viewBox="0 0 47 47" fill="none" xmlns="http://www.w3.org/2000/svg">
<path d="M38.4907 36.046L32.6371 30.2095C34.5257 27.8034 35.5505 24.8321 35.5467 21.7733C35.5467 19.0492 34.7389 16.3863 33.2255 14.1213C31.712 11.8563 29.5609 10.0909 27.0442 9.04843C24.5274 8.00596 21.7581 7.7332 19.0863 8.26465C16.4145 8.7961 13.9604 10.1079 12.0341 12.0341C10.1079 13.9604 8.7961 16.4145 8.26466 19.0863C7.73321 21.7581 8.00597 24.5274 9.04844 27.0442C10.0909 29.5609 11.8563 31.712 14.1213 33.2254C16.3863 34.7389 19.0492 35.5467 21.7733 35.5467C24.8322 35.5505 27.8034 34.5257 30.2095 32.6371L36.046 38.4907C36.206 38.6521 36.3964 38.7802 36.6062 38.8676C36.816 38.955 37.0411 39 37.2684 39C37.4956 39 37.7207 38.955 37.9305 38.8676C38.1403 38.7802 38.3307 38.6521 38.4907 38.4907C38.6521 38.3307 38.7802 38.1403 38.8676 37.9305C38.955 37.7207 39 37.4956 39 37.2683C39 37.0411 38.955 36.816 38.8676 36.6062C38.7802 36.3964 38.6521 36.206 38.4907 36.046ZM11.4433 21.7733C11.4433 19.7303 12.0492 17.7331 13.1843 16.0343C14.3193 14.3355 15.9327 13.0115 17.8202 12.2297C19.7078 11.4478 21.7848 11.2432 23.7886 11.6418C25.7925 12.0404 27.6331 13.0242 29.0778 14.4689C30.5224 15.9136 31.5063 17.7542 31.9049 19.7581C32.3034 21.7619 32.0989 23.8389 31.317 25.7265C30.5352 27.614 29.2111 29.2273 27.5124 30.3624C25.8136 31.4975 23.8164 32.1033 21.7733 32.1033C19.0337 32.1033 16.4062 31.015 14.4689 29.0778C12.5317 27.1405 11.4433 24.513 11.4433 21.7733Z" fill="black"/>
</svg>
