<svg width="436" height="430" viewBox="0 0 436 430" fill="none" xmlns="http://www.w3.org/2000/svg">
<g clip-path="url(#clip0_5_1402)">
<path d="M68.7235 0H284.831V216.101H68.7235V0Z" fill="#F4F4F4"/>
<path d="M66.2465 0H68.7235V216.101H66.2465V0Z" fill="#F4F4F4"/>
<path opacity="0.05" d="M66.2465 0H68.7235V216.101H66.2465V0Z" fill="#292A2E"/>
<path opacity="0.05" d="M121.077 148.912V92.3722H167.392V125.221H239.135V183.382H269.626V216.101H239.135H233.261H79.1189V148.912H121.077Z" fill="#292A2E"/>
<path opacity="0.34" d="M127.719 98.511H161.447V104.65H127.719V98.511Z" fill="#FFFFFA"/>
<path opacity="0.34" d="M127.719 111.232H161.447V117.371H127.719V111.232Z" fill="#FFFFFA"/>
<path opacity="0.34" d="M127.719 123.954H161.447V130.092H127.719V123.954Z" fill="#FFFFFA"/>
<path opacity="0.34" d="M85.0998 154.87H91.3161V161.009H85.0998V154.87Z" fill="#FFFFFA"/>
<path opacity="0.34" d="M85.0998 167.592H91.3161V173.731H85.0998V167.592Z" fill="#FFFFFA"/>
<path opacity="0.34" d="M85.0998 180.312H91.3161V186.451H85.0998V180.312Z" fill="#FFFFFA"/>
<path opacity="0.34" d="M96.6004 154.87H102.817V161.009H96.6004V154.87Z" fill="#FFFFFA"/>
<path opacity="0.34" d="M96.6004 167.592H102.817V173.731H96.6004V167.592Z" fill="#FFFFFA"/>
<path opacity="0.34" d="M96.6004 180.312H102.817V186.451H96.6004V180.312Z" fill="#FFFFFA"/>
<path opacity="0.34" d="M107.79 154.87H114.006V161.009H107.79V154.87Z" fill="#FFFFFA"/>
<path opacity="0.34" d="M107.79 167.592H114.006V173.731H107.79V167.592Z" fill="#FFFFFA"/>
<path opacity="0.34" d="M107.79 180.312H114.006V186.451H107.79V180.312Z" fill="#FFFFFA"/>
<path d="M68.7235 106.838H112.208V0H115.804V106.838H233.261V0H236.857V106.838H284.831V110.434H236.857V216.101H233.261V110.434H115.804V216.101H112.208V110.434H68.7235V106.838Z" fill="white"/>
<path d="M60.1145 215.841H293.44V223.028H60.1145V215.841Z" fill="#F4F4F4"/>
<path opacity="0.1" d="M60.1145 215.841H293.44V223.028H60.1145V215.841Z" fill="#292A2E"/>
<path opacity="0.1" d="M56.7458 215.841H60.1145V223.028H56.7458V215.841Z" fill="#292A2E"/>
<path opacity="0.1" d="M56.7458 215.841H60.1145V223.028H56.7458V215.841Z" fill="#292A2E"/>
<path d="M66.2466 3.85754H284.831V9.20103H66.2466V3.85754Z" fill="white"/>
<path d="M66.2466 13.838H284.831V19.1814H66.2466V13.838Z" fill="white"/>
<path d="M66.2466 23.8179H284.831V29.1614H66.2466V23.8179Z" fill="white"/>
<path d="M66.2466 33.7983H284.831V39.1418H66.2466V33.7983Z" fill="white"/>
<path d="M66.2466 43.7788H284.831V49.1223H66.2466V43.7788Z" fill="white"/>
<path d="M89.4634 0H92.7388V55.1484H89.4634V0Z" fill="white"/>
<path d="M90.8231 63.0686C88.3377 63.0686 86.3228 61.0537 86.3228 58.5683C86.3228 56.0829 88.3377 54.0681 90.8231 54.0681C93.3086 54.0681 95.3235 56.0829 95.3235 58.5683C95.3235 61.0537 93.3086 63.0686 90.8231 63.0686Z" fill="white"/>
<path d="M6.31119 430H435.651C435.697 430 435.742 429.991 435.784 429.973C435.827 429.956 435.865 429.93 435.898 429.898C435.93 429.865 435.956 429.827 435.973 429.784C435.991 429.742 436 429.697 436 429.651C436 429.605 435.991 429.559 435.973 429.517C435.956 429.475 435.93 429.436 435.898 429.404C435.865 429.371 435.827 429.346 435.784 429.328C435.742 429.31 435.697 429.301 435.651 429.301H6.31219C6.21957 429.301 6.13071 429.338 6.06522 429.404C5.99969 429.469 5.96289 429.558 5.96289 429.651C5.96289 429.743 5.99969 429.832 6.06522 429.898C6.13071 429.963 6.21957 430 6.31219 430H6.31119Z" fill="#292A2E"/>
<g opacity="0.65">
<path d="M6.31119 430H435.651C435.697 430 435.742 429.991 435.784 429.973C435.827 429.956 435.865 429.93 435.898 429.898C435.93 429.865 435.956 429.827 435.973 429.784C435.991 429.742 436 429.697 436 429.651C436 429.605 435.991 429.559 435.973 429.517C435.956 429.475 435.93 429.436 435.898 429.404C435.865 429.371 435.827 429.346 435.784 429.328C435.742 429.31 435.697 429.301 435.651 429.301H6.31219C6.21957 429.301 6.13071 429.338 6.06522 429.404C5.99969 429.469 5.96289 429.558 5.96289 429.651C5.96289 429.743 5.99969 429.832 6.06522 429.898C6.13071 429.963 6.21957 430 6.31219 430H6.31119Z" fill="#292A2E"/>
</g>
<path d="M405.76 429.386L406.74 429.197L391.423 276.995L390.443 277.183L405.76 429.386Z" fill="#494949"/>
<path d="M348.727 429.386L349.707 429.197L334.39 276.995L333.41 277.183L348.727 429.386Z" fill="#494949"/>
<path d="M222.659 429.386L221.679 429.197L236.995 276.995L237.975 277.183L222.659 429.386Z" fill="#494949"/>
<path d="M279.691 429.386L278.712 429.197L294.028 276.995L295.008 277.183L279.691 429.386Z" fill="#494949"/>
<path d="M300.004 210.011L300.994 210.143L292.046 277.157L291.057 277.025L300.004 210.011Z" fill="#494949"/>
<path d="M402.708 210.01L403.697 210.142L394.75 277.156L393.76 277.024L402.708 210.01Z" fill="#494949"/>
<path d="M291.142 272.182H391.598C394.308 272.182 396.506 274.379 396.506 277.089V277.09C396.506 279.8 394.308 281.997 391.598 281.997H291.142C288.432 281.997 286.235 279.8 286.235 277.09V277.089C286.235 274.379 288.432 272.182 291.142 272.182Z" fill="#292A2E"/>
<path opacity="0.8" d="M291.142 272.182H391.598C394.308 272.182 396.506 274.379 396.506 277.089V277.09C396.506 279.8 394.308 281.997 391.598 281.997H291.142C288.432 281.997 286.235 279.8 286.235 277.09V277.089C286.235 274.379 288.432 272.182 291.142 272.182Z" fill="white"/>
<path d="M291.144 282.496H391.598C393.023 282.482 394.385 281.907 395.388 280.894C396.391 279.882 396.953 278.514 396.953 277.089C396.953 275.664 396.391 274.297 395.388 273.285C394.385 272.272 393.023 271.696 391.598 271.683H291.144C289.719 271.696 288.357 272.272 287.354 273.285C286.352 274.297 285.789 275.664 285.789 277.089C285.789 278.514 286.352 279.882 287.354 280.894C288.357 281.907 289.719 282.482 291.144 282.496ZM391.598 272.681C392.759 272.693 393.869 273.163 394.685 273.988C395.502 274.814 395.96 275.928 395.96 277.089C395.96 278.251 395.502 279.365 394.685 280.19C393.869 281.016 392.759 281.486 391.598 281.498H291.144C289.983 281.486 288.873 281.016 288.057 280.19C287.24 279.365 286.782 278.251 286.782 277.089C286.782 275.928 287.24 274.814 288.057 273.988C288.873 273.163 289.983 272.693 291.144 272.681H391.598Z" fill="#292A2E"/>
<path d="M236.006 272.182H336.463C339.173 272.182 341.37 274.379 341.37 277.089V277.09C341.37 279.8 339.173 281.997 336.463 281.997H236.006C233.296 281.997 231.099 279.8 231.099 277.09V277.089C231.099 274.379 233.296 272.182 236.006 272.182Z" fill="white"/>
<path d="M236.006 282.496H336.462C337.176 282.503 337.885 282.368 338.547 282.099C339.209 281.831 339.811 281.434 340.319 280.931C340.827 280.428 341.229 279.83 341.504 279.17C341.779 278.511 341.921 277.804 341.921 277.089C341.921 276.375 341.779 275.668 341.504 275.008C341.229 274.349 340.827 273.751 340.319 273.248C339.811 272.745 339.209 272.348 338.547 272.079C337.885 271.811 337.176 271.676 336.462 271.683H236.006C235.292 271.676 234.583 271.811 233.921 272.079C233.259 272.348 232.657 272.745 232.149 273.248C231.641 273.751 231.239 274.349 230.964 275.008C230.689 275.668 230.547 276.375 230.547 277.089C230.547 277.804 230.689 278.511 230.964 279.17C231.239 279.83 231.641 280.428 232.149 280.931C232.657 281.434 233.259 281.831 233.921 282.099C234.583 282.368 235.292 282.503 236.006 282.496ZM336.462 272.681C337.045 272.674 337.623 272.784 338.164 273.003C338.704 273.221 339.196 273.545 339.61 273.955C340.024 274.365 340.353 274.853 340.578 275.391C340.802 275.929 340.918 276.506 340.918 277.089C340.918 277.672 340.802 278.249 340.578 278.787C340.353 279.325 340.024 279.813 339.61 280.223C339.196 280.633 338.704 280.957 338.164 281.176C337.623 281.395 337.045 281.504 336.462 281.498H236.006C235.423 281.504 234.845 281.395 234.304 281.176C233.764 280.957 233.272 280.633 232.858 280.223C232.444 279.813 232.115 279.325 231.89 278.787C231.666 278.249 231.55 277.672 231.55 277.089C231.55 276.506 231.666 275.929 231.89 275.391C232.115 274.853 232.444 274.365 232.858 273.955C233.272 273.545 233.764 273.221 234.304 273.003C234.845 272.784 235.423 272.674 236.006 272.681H336.462Z" fill="#292A2E"/>
<path d="M305.507 210.075H402.933C404.526 210.075 406.064 209.496 407.261 208.445C408.458 207.393 409.231 205.943 409.437 204.363L415.881 154.875C416.002 153.95 415.924 153.01 415.652 152.118C415.38 151.225 414.921 150.401 414.306 149.7C413.69 148.999 412.932 148.438 412.082 148.053C411.232 147.669 410.31 147.47 409.377 147.47H311.952C310.359 147.47 308.821 148.049 307.624 149.1C306.427 150.151 305.654 151.602 305.448 153.181L299.004 202.669C298.883 203.594 298.961 204.534 299.233 205.427C299.505 206.319 299.964 207.143 300.579 207.844C301.195 208.545 301.953 209.107 302.803 209.491C303.652 209.876 304.575 210.075 305.507 210.075Z" fill="#292A2E"/>
<path opacity="0.8" d="M305.507 210.075H402.933C404.526 210.075 406.064 209.496 407.261 208.445C408.458 207.393 409.231 205.943 409.437 204.363L415.881 154.875C416.002 153.95 415.924 153.01 415.652 152.118C415.38 151.225 414.921 150.401 414.306 149.7C413.69 148.999 412.932 148.438 412.082 148.053C411.232 147.669 410.31 147.47 409.377 147.47H311.952C310.359 147.47 308.821 148.049 307.624 149.1C306.427 150.151 305.654 151.602 305.448 153.181L299.004 202.669C298.883 203.594 298.961 204.534 299.233 205.427C299.505 206.319 299.964 207.143 300.579 207.844C301.195 208.545 301.953 209.107 302.803 209.491C303.652 209.876 304.575 210.075 305.507 210.075Z" fill="white"/>
<path d="M305.507 210.574H402.933C404.646 210.57 406.299 209.945 407.586 208.815C408.873 207.685 409.707 206.127 409.932 204.429L416.376 154.941C416.506 153.945 416.422 152.934 416.129 151.973C415.837 151.013 415.343 150.126 414.681 149.372C414.018 148.618 413.203 148.014 412.288 147.6C411.374 147.186 410.381 146.972 409.378 146.972H311.952C310.239 146.976 308.585 147.601 307.298 148.731C306.011 149.861 305.178 151.42 304.952 153.119L298.508 202.606C298.379 203.601 298.463 204.613 298.755 205.573C299.048 206.534 299.542 207.42 300.204 208.175C300.867 208.929 301.682 209.533 302.597 209.947C303.511 210.361 304.504 210.575 305.507 210.575V210.574ZM409.378 147.969C410.239 147.969 411.091 148.153 411.877 148.508C412.662 148.863 413.362 149.382 413.931 150.03C414.499 150.677 414.923 151.439 415.174 152.263C415.425 153.088 415.498 153.956 415.386 154.811L408.942 204.299C408.749 205.757 408.033 207.095 406.928 208.066C405.823 209.036 404.404 209.573 402.933 209.576H305.507C304.645 209.576 303.793 209.392 303.008 209.037C302.223 208.681 301.522 208.162 300.953 207.515C300.385 206.867 299.961 206.105 299.71 205.28C299.459 204.456 299.387 203.587 299.498 202.732L305.942 153.245C306.136 151.787 306.851 150.449 307.957 149.479C309.062 148.508 310.481 147.972 311.952 147.969H409.378Z" fill="#292A2E"/>
<path d="M299.998 210.075H397.424C399.017 210.075 400.555 209.496 401.752 208.445C402.949 207.394 403.722 205.943 403.928 204.363L410.373 154.875C410.493 153.95 410.415 153.01 410.143 152.118C409.871 151.226 409.412 150.402 408.796 149.701C408.181 149 407.423 148.438 406.573 148.053C405.723 147.669 404.801 147.47 403.868 147.47H306.442C304.85 147.47 303.311 148.049 302.114 149.1C300.917 150.151 300.144 151.602 299.938 153.181L293.494 202.669C293.373 203.594 293.452 204.535 293.724 205.427C293.995 206.319 294.454 207.143 295.07 207.844C295.685 208.545 296.443 209.107 297.293 209.491C298.143 209.876 299.065 210.075 299.998 210.075Z" fill="white"/>
<path d="M299.998 210.574H397.424C399.137 210.57 400.79 209.945 402.077 208.815C403.364 207.685 404.197 206.127 404.423 204.429L410.867 154.941C410.997 153.945 410.913 152.934 410.62 151.973C410.328 151.013 409.834 150.126 409.171 149.372C408.509 148.618 407.693 148.014 406.779 147.6C405.864 147.186 404.872 146.972 403.868 146.972H306.442C304.729 146.975 303.076 147.601 301.789 148.731C300.502 149.861 299.669 151.42 299.444 153.119L292.999 202.606C292.87 203.601 292.954 204.613 293.246 205.573C293.539 206.534 294.032 207.42 294.695 208.175C295.357 208.929 296.173 209.533 297.087 209.947C298.002 210.361 298.994 210.575 299.998 210.575V210.574ZM403.868 147.969C404.73 147.969 405.582 148.153 406.367 148.508C407.152 148.863 407.853 149.382 408.422 150.03C408.99 150.677 409.414 151.439 409.665 152.263C409.916 153.088 409.989 153.956 409.878 154.811L403.433 204.299C403.24 205.757 402.524 207.095 401.419 208.066C400.314 209.036 398.895 209.573 397.424 209.576H299.998C299.136 209.576 298.284 209.392 297.498 209.037C296.713 208.681 296.013 208.162 295.444 207.515C294.875 206.867 294.451 206.105 294.2 205.281C293.949 204.456 293.877 203.587 293.988 202.732L300.433 153.245C300.626 151.787 301.341 150.448 302.446 149.478C303.552 148.507 304.971 147.97 306.442 147.967L403.868 147.969Z" fill="#292A2E"/>
<path d="M162.594 403.93C162.594 403.93 159.919 417.799 146.934 418.571C133.95 419.344 136.765 429.688 136.765 429.688H186.386V404.897L162.594 403.93Z" fill="#FF4F28"/>
<path d="M256.997 395.174C256.997 395.174 260.718 408.799 249.407 415.224C238.097 421.65 245.19 429.688 245.19 429.688L289.715 407.783L278.772 385.538L256.997 395.174Z" fill="#FF4F28"/>
<path d="M296.953 72.0266C296.953 72.0266 290.479 67.1402 288.875 55.8923C287.633 47.1833 295.666 52.8251 295.666 52.8251C295.666 52.8251 294.833 46.5461 299.409 47.1688C303.984 47.7915 306.544 54.3889 306.544 54.3889" fill="#0C0C0C"/>
<path d="M323.055 47.9038C323.055 47.9038 345.757 50.3378 337.55 81.0984L335.541 81.2326L331.464 81.5061" fill="#0C0C0C"/>
<path d="M300.755 113.223C300.855 113.21 301.963 131.585 323.312 129.985C338.092 128.878 343.362 113.197 343.701 113.197C342.107 112.858 340.138 112.345 339.355 112.168C337.65 111.772 336.105 110.866 334.927 109.571C333.748 108.276 332.993 106.652 332.76 104.917C332.327 102.312 333.059 88.9857 332.835 86.3501L310.147 91.4142C310.464 96.9802 312.683 109.884 304.908 112.168C303.612 112.546 302.219 112.893 300.755 113.223Z" fill="#E98862"/>
<path opacity="0.52" d="M309.829 106.894C310.184 105.749 310.413 104.568 310.511 103.373C310.76 100.646 310.71 97.9001 310.362 95.1839C314.973 94.5615 319.317 92.6581 322.901 89.6902C323.322 91.246 325.639 98.044 324.996 99.5229C323.786 102.318 318.089 106.894 309.829 106.894Z" fill="#0C0C0C"/>
<path d="M314.511 103.257C323.462 102.454 334.175 96.7996 334.329 84.6501L334.469 73.6882C334.623 61.5387 328.367 51.6087 316.927 51.4635C305.488 51.3178 296.812 61.0582 296.658 73.2072L296.596 78.0602C296.604 79.7269 296.725 81.3912 296.96 83.0414C297.547 87.4074 298.457 94.0452 301.419 98.536C304.218 102.775 308.793 103.77 314.511 103.257Z" fill="#E98862"/>
<path d="M310.359 92.1521C308.511 92.2359 306.671 91.8843 304.984 91.1257C304.95 91.1109 304.918 91.0893 304.891 91.0622C304.865 91.0351 304.844 91.0031 304.83 90.9679C304.816 90.9327 304.809 90.8951 304.809 90.8572C304.81 90.8193 304.817 90.7819 304.832 90.747C304.847 90.7122 304.869 90.6806 304.896 90.6541C304.923 90.6275 304.955 90.6066 304.99 90.5925C305.025 90.5784 305.063 90.5713 305.101 90.5717C305.139 90.5721 305.176 90.58 305.211 90.5948C308.844 92.1441 312.142 91.9171 314.75 89.9387C314.803 89.8971 314.858 89.8583 314.914 89.8224C314.98 89.7921 315.054 89.7873 315.123 89.8092C315.192 89.8311 315.25 89.8779 315.286 89.9405C315.322 90.0032 315.333 90.077 315.318 90.1475C315.302 90.218 315.26 90.28 315.201 90.3214C315.18 90.3344 315.147 90.3608 315.101 90.3972C313.73 91.4414 312.079 92.0524 310.359 92.1521Z" fill="#0C0C0C"/>
<path d="M310.445 94.889C310.111 94.9098 309.776 94.9018 309.444 94.8651C309.368 94.857 309.298 94.819 309.25 94.7595C309.202 94.7 309.179 94.6238 309.187 94.5477C309.196 94.4716 309.233 94.4018 309.293 94.3537C309.353 94.3057 309.429 94.2832 309.505 94.2912C311.504 94.5038 312.458 93.5877 312.499 93.5483C312.553 93.4966 312.626 93.4682 312.701 93.4693C312.776 93.4703 312.848 93.5006 312.901 93.5537C312.955 93.6069 312.985 93.6787 312.986 93.7539C312.987 93.8291 312.959 93.9017 312.907 93.9564C312.219 94.5421 311.349 94.8716 310.445 94.889Z" fill="#0C0C0C"/>
<path d="M300.436 80.3964C299.657 80.3964 299.027 79.7655 299.027 78.9873C299.027 78.2091 299.657 77.5782 300.436 77.5782C301.214 77.5782 301.845 78.2091 301.845 78.9873C301.845 79.7655 301.214 80.3964 300.436 80.3964Z" fill="#0C0C0C"/>
<path d="M314.202 79.5326C313.423 79.5326 312.793 78.9017 312.793 78.1235C312.793 77.3453 313.423 76.7144 314.202 76.7144C314.98 76.7144 315.611 77.3453 315.611 78.1235C315.611 78.9017 314.98 79.5326 314.202 79.5326Z" fill="#0C0C0C"/>
<path d="M333.571 88.3425C337.048 88.3869 339.913 84.7035 339.958 81.2271C340.004 77.7508 337.209 75.7983 333.733 75.7539L331.912 78.0602L330.584 88.3045L333.571 88.3425Z" fill="#E98862"/>
<path d="M330.115 82.7565C330.115 82.7565 328.941 65.5654 323.728 64.5041C320.256 63.797 311.837 68.7214 304.038 67.234C300.626 66.5853 297.387 67.4281 297.058 69.0392C296.928 69.6774 294.802 60.5068 300.145 53.5492C304.399 48.0106 318.319 46.4438 324.653 48.2601C342.188 53.2907 334.45 76.5108 334.45 76.5108L333.668 82.4371L330.115 82.7565Z" fill="#0C0C0C"/>
<path d="M308.259 88.095C308.252 88.0955 308.244 88.0955 308.237 88.095C307.117 88.0835 305.239 87.9398 305.246 87.1015C305.254 86.407 307.23 78.9309 307.456 78.0806C307.481 78.0144 307.53 77.9597 307.592 77.9273C307.655 77.8949 307.728 77.8871 307.797 77.9053C307.865 77.9235 307.924 77.9665 307.963 78.0259C308.001 78.0854 308.016 78.157 308.005 78.2268C307.127 81.538 305.82 86.6355 305.814 87.1085C305.923 87.3081 307.08 87.5132 308.24 87.5252C308.313 87.5267 308.383 87.5563 308.435 87.6079C308.487 87.6594 308.517 87.7289 308.519 87.802C308.521 87.8752 308.495 87.9463 308.446 88.0009C308.398 88.0554 308.33 88.0891 308.257 88.095H308.259Z" fill="#0C0C0C"/>
<path d="M304.435 71.347C303.258 71.0229 302.015 71.0229 300.837 71.347C300.259 71.5024 299.707 71.744 299.201 72.0635C298.7 72.3763 298.241 72.7512 297.834 73.1792C297.756 73.2547 297.711 73.3577 297.708 73.4662C297.705 73.5747 297.745 73.68 297.818 73.7596C297.892 73.8392 297.994 73.8867 298.103 73.892C298.211 73.8973 298.317 73.86 298.398 73.788L298.424 73.766C298.801 73.4174 299.22 73.1175 299.671 72.8733C300.114 72.6306 300.592 72.4565 301.087 72.3569C302.062 72.152 303.073 72.2084 304.019 72.5206L304.059 72.5345C304.215 72.5897 304.387 72.5806 304.536 72.5093C304.686 72.4379 304.801 72.3102 304.856 72.1541C304.911 71.998 304.902 71.8264 304.831 71.677C304.759 71.5276 304.632 71.4126 304.475 71.3575L304.435 71.347Z" fill="#0C0C0C"/>
<path d="M312.772 72.054C313.668 71.6187 314.663 71.4278 315.656 71.5007C316.16 71.5334 316.657 71.6424 317.128 71.824C317.608 72.006 318.062 72.2474 318.482 72.5425L318.509 72.5605C318.599 72.6182 318.707 72.639 318.812 72.6185C318.917 72.5981 319.01 72.538 319.072 72.4508C319.134 72.3636 319.16 72.2559 319.144 72.1501C319.129 72.0443 319.073 71.9486 318.989 71.8829C318.528 71.513 318.023 71.2025 317.485 70.9588C316.94 70.71 316.361 70.5442 315.768 70.4668C315.173 70.3832 314.569 70.3817 313.974 70.4623C313.363 70.5382 312.766 70.7007 312.201 70.9448C312.049 71.011 311.929 71.1349 311.869 71.2893C311.808 71.4437 311.811 71.6159 311.877 71.7681C311.943 71.9203 312.067 72.04 312.221 72.1008C312.376 72.1616 312.548 72.1586 312.7 72.0924C312.712 72.0874 312.724 72.082 312.735 72.076L312.772 72.054Z" fill="#0C0C0C"/>
<path d="M306.11 59.5124C303.537 58.9748 302.093 55.4688 302.884 51.6815C303.675 47.8942 306.403 45.2598 308.976 45.7974C311.549 46.335 312.994 49.841 312.202 53.6283C311.411 57.4156 308.684 60.05 306.11 59.5124Z" fill="#0C0C0C"/>
<path d="M284.574 391.326L247.026 272.875H315.088C328.76 272.875 334.46 261.281 334.46 247.61C334.46 233.939 321.019 221.955 307.348 221.955H215.489C207.151 221.955 197.801 227.055 193.224 234.025C188.647 240.996 189.885 251.797 193.2 259.448L253.328 405.481" fill="#262626"/>
<path opacity="0.8" d="M284.574 391.326L247.026 272.875H315.088C328.76 272.875 334.46 261.281 334.46 247.61C334.46 233.939 321.019 221.955 307.348 221.955H215.489C207.151 221.955 197.801 227.055 193.224 234.025C188.647 240.996 189.885 251.797 193.2 259.448L253.328 405.481" fill="#0A0A0A"/>
<path d="M189.24 416.809L252.023 272.875L334.461 272.869C353.777 271.355 362.623 260.769 362.342 247.101C362.065 233.607 355.231 220.278 341.797 220.278H230.687C220.747 220.482 212.927 231.466 209.239 240.698L157.045 407.997" fill="#262626"/>
<path d="M367.965 220.443C367.965 220.443 371.626 244.317 365.822 257.59C358.578 274.161 331.419 272.87 331.419 272.87L332.949 220.278L367.965 220.443Z" fill="#262626"/>
<path d="M206.877 219.973L265.109 207.907C267.535 207.404 269.796 206.298 271.681 204.69C273.567 203.082 275.016 201.024 275.895 198.707L298.799 138.355C299.496 136.544 299.829 134.612 299.777 132.672C299.726 130.732 299.292 128.821 298.5 127.049C297.708 125.277 296.574 123.679 295.163 122.347C293.751 121.014 292.091 119.974 290.276 119.285C288.461 118.597 286.528 118.273 284.588 118.334C282.648 118.394 280.739 118.838 278.971 119.638C277.203 120.438 275.61 121.58 274.285 122.998C272.959 124.416 271.927 126.082 271.247 127.899L251.212 180.691L200.896 191.116C200.896 191.116 205.867 220.182 206.877 219.973Z" fill="#FF4F28"/>
<path d="M274.228 153.683C274.901 161.584 279.667 210.871 280.316 220.601H367.926C368.43 211.825 370.69 173.449 372.599 156.284C374.421 139.907 376.975 132.455 374.877 127.365C371.175 118.389 359.393 114.38 351.414 113.301C346.543 112.641 339.215 112.168 339.215 112.168C339.215 112.168 338.594 124.719 323.8 125.417C303.662 126.365 305.006 112.168 304.907 112.168C301.644 112.168 283.885 114.541 279.445 117.435C273.173 121.523 271.319 127.093 271.246 132.212C271.162 138.104 273.466 144.721 274.228 153.683Z" fill="#FF4F28"/>
<path d="M277.671 193.954H277.692C277.725 193.951 277.757 193.942 277.786 193.927C277.815 193.912 277.841 193.891 277.862 193.866C277.883 193.841 277.899 193.812 277.909 193.781C277.919 193.75 277.923 193.717 277.92 193.684L275.646 166.364C275.644 166.331 275.636 166.299 275.621 166.269C275.606 166.239 275.586 166.213 275.561 166.192C275.535 166.171 275.506 166.155 275.475 166.145C275.443 166.135 275.41 166.132 275.377 166.136C275.344 166.138 275.313 166.148 275.283 166.163C275.254 166.178 275.228 166.198 275.207 166.223C275.186 166.248 275.17 166.277 275.16 166.308C275.15 166.34 275.146 166.372 275.149 166.405L277.423 193.726C277.429 193.788 277.457 193.846 277.503 193.888C277.549 193.93 277.609 193.954 277.671 193.954Z" fill="#0C0C0C"/>
<path d="M263.586 215.183L244.364 156.093C244.026 155.055 243.368 154.15 242.484 153.509C241.601 152.867 240.537 152.521 239.445 152.521H161.128C160.312 152.521 159.507 152.714 158.779 153.085C158.052 153.456 157.423 153.993 156.943 154.654C156.463 155.314 156.147 156.079 156.019 156.886C155.892 157.692 155.957 158.517 156.209 159.293L175.432 218.383C175.77 219.421 176.428 220.326 177.312 220.968C178.195 221.61 179.259 221.955 180.351 221.955H258.668C259.484 221.955 260.289 221.762 261.017 221.391C261.744 221.021 262.373 220.483 262.853 219.823C263.333 219.162 263.649 218.397 263.777 217.591C263.904 216.785 263.839 215.959 263.586 215.183Z" fill="#292A2E"/>
<path opacity="0.2" d="M263.586 215.183L244.364 156.093C244.026 155.055 243.368 154.15 242.484 153.509C241.601 152.867 240.537 152.521 239.445 152.521H161.128C160.312 152.521 159.507 152.714 158.779 153.085C158.052 153.456 157.423 153.993 156.943 154.654C156.463 155.314 156.147 156.079 156.019 156.886C155.892 157.692 155.957 158.517 156.209 159.293L175.432 218.383C175.77 219.421 176.428 220.326 177.312 220.968C178.195 221.61 179.259 221.955 180.351 221.955H258.668C259.484 221.955 260.289 221.762 261.017 221.391C261.744 221.021 262.373 220.483 262.853 219.823C263.333 219.162 263.649 218.397 263.777 217.591C263.904 216.785 263.839 215.959 263.586 215.183Z" fill="white"/>
<path d="M247.905 217.164H300.331C301.637 217.164 302.696 218.223 302.696 219.529V219.59C302.696 220.896 301.637 221.955 300.331 221.955H247.905C246.599 221.955 245.54 220.896 245.54 219.59V219.529C245.54 218.223 246.599 217.164 247.905 217.164Z" fill="#292A2E"/>
<path opacity="0.2" d="M247.905 217.164H300.331C301.637 217.164 302.696 218.223 302.696 219.529V219.59C302.696 220.896 301.637 221.955 300.331 221.955H247.905C246.599 221.955 245.54 220.896 245.54 219.59V219.529C245.54 218.223 246.599 217.164 247.905 217.164Z" fill="white"/>
<path d="M209.898 198.334C205.362 198.334 201.684 194.657 201.684 190.121C201.684 185.585 205.362 181.907 209.898 181.907C214.434 181.907 218.112 185.585 218.112 190.121C218.112 194.657 214.434 198.334 209.898 198.334Z" fill="white"/>
<path d="M273.435 142.669H294.26V168.208H273.435V142.669Z" fill="white"/>
<path d="M294.26 163.966C295.946 163.966 297.595 163.466 298.998 162.529C300.4 161.592 301.493 160.26 302.139 158.702C302.784 157.143 302.953 155.429 302.624 153.775C302.295 152.12 301.483 150.601 300.29 149.408C299.097 148.215 297.578 147.403 295.924 147.074C294.269 146.745 292.554 146.914 290.996 147.56C289.438 148.205 288.106 149.298 287.169 150.7C286.232 152.103 285.732 153.752 285.732 155.438C285.734 157.699 286.633 159.867 288.232 161.466C289.831 163.064 291.999 163.964 294.26 163.966ZM294.26 150.404C295.256 150.404 296.229 150.699 297.057 151.252C297.885 151.806 298.531 152.592 298.912 153.512C299.293 154.432 299.393 155.445 299.198 156.421C299.004 157.398 298.524 158.295 297.82 158.999C297.116 159.703 296.219 160.183 295.242 160.377C294.265 160.571 293.253 160.472 292.332 160.09C291.412 159.709 290.626 159.064 290.073 158.236C289.52 157.408 289.224 156.434 289.224 155.438C289.226 154.103 289.757 152.823 290.701 151.88C291.645 150.936 292.925 150.405 294.26 150.404Z" fill="white"/>
<path d="M293.059 159.222C293.248 158.729 293.606 158.318 294.068 158.062C294.53 157.805 295.068 157.72 295.587 157.82C295.577 157.796 295.572 157.771 295.572 157.745L294.873 157.433C294.384 157.225 293.981 156.854 293.734 156.383C293.486 155.912 293.409 155.371 293.515 154.849C293.589 154.524 293.733 154.219 293.939 153.956C294.144 153.694 294.406 153.48 294.704 153.33C295.002 153.181 295.329 153.099 295.663 153.092C295.996 153.084 296.327 153.15 296.632 153.286L298.28 154.023C298.28 154.017 298.28 154.01 298.283 154.004C298.29 153.99 298.298 153.978 298.307 153.967C297.901 153.661 297.611 153.226 297.483 152.734C297.356 152.242 297.399 151.721 297.606 151.257C298.064 150.019 299.685 149.92 300.758 150.399L305.066 152.137L303.765 150.818C303.358 150.388 303.129 149.819 303.125 149.227C303.121 148.634 303.341 148.063 303.742 147.627C303.958 147.409 304.215 147.238 304.498 147.123C304.782 147.008 305.086 146.952 305.392 146.958C305.698 146.965 305.999 147.033 306.278 147.16C306.556 147.287 306.806 147.469 307.012 147.696L322.331 164.425L317.091 169.471C315.465 171.038 313.407 172.084 311.182 172.474C308.957 172.864 306.666 172.58 304.603 171.66L295.266 167.474C294.776 167.266 294.374 166.895 294.126 166.424C293.879 165.954 293.802 165.412 293.908 164.891C294.014 164.423 294.267 164.001 294.629 163.687C294.991 163.373 295.445 163.183 295.923 163.144C295.918 163.118 295.917 163.092 295.923 163.066C295.928 163.04 295.938 163.015 295.953 162.993C295.967 162.971 295.986 162.952 296.008 162.938C296.03 162.923 296.055 162.913 296.081 162.908L294.357 162.139C293.811 161.908 293.373 161.478 293.132 160.937C292.891 160.395 292.865 159.782 293.059 159.222Z" fill="#E98862"/>
<path opacity="0.2" d="M301.395 155.439C301.444 155.439 301.492 155.422 301.53 155.39C301.568 155.359 301.594 155.315 301.604 155.267C301.613 155.218 301.605 155.168 301.581 155.125C301.557 155.082 301.519 155.048 301.473 155.03L298.558 153.882C298.533 153.872 298.505 153.867 298.477 153.868C298.449 153.868 298.422 153.874 298.397 153.885C298.371 153.896 298.348 153.912 298.329 153.932C298.309 153.952 298.294 153.976 298.284 154.002C298.274 154.028 298.269 154.055 298.269 154.083C298.27 154.111 298.276 154.138 298.287 154.164C298.298 154.189 298.314 154.212 298.334 154.231C298.354 154.251 298.377 154.266 298.403 154.276L301.317 155.424C301.342 155.433 301.368 155.439 301.395 155.439Z" fill="#0C0C0C"/>
<path opacity="0.2" d="M299.769 159.559C299.818 159.559 299.865 159.542 299.903 159.511C299.941 159.479 299.966 159.436 299.976 159.388C299.985 159.34 299.977 159.29 299.954 159.247C299.931 159.204 299.893 159.17 299.847 159.152L295.861 157.548C295.81 157.53 295.754 157.533 295.704 157.555C295.655 157.578 295.615 157.619 295.595 157.669C295.575 157.72 295.575 157.776 295.595 157.827C295.615 157.877 295.654 157.918 295.704 157.941L299.689 159.544C299.715 159.554 299.741 159.559 299.769 159.559Z" fill="#0C0C0C"/>
<path opacity="0.2" d="M298.03 164.033C298.08 164.033 298.128 164.016 298.166 163.984C298.204 163.952 298.229 163.908 298.238 163.859C298.247 163.81 298.239 163.76 298.214 163.717C298.19 163.674 298.151 163.641 298.104 163.623L296.204 162.91C296.152 162.89 296.093 162.892 296.042 162.915C295.991 162.939 295.951 162.981 295.931 163.034C295.911 163.086 295.913 163.144 295.936 163.196C295.96 163.247 296.002 163.287 296.055 163.307L297.955 164.02C297.979 164.029 298.004 164.033 298.03 164.033Z" fill="#0C0C0C"/>
<path d="M288.628 126.424C288.72 126.424 288.81 126.399 288.888 126.351C288.967 126.303 289.03 126.234 289.072 126.153C290.208 123.938 291.622 121.18 291.462 118.29C291.336 115.991 290.258 113.949 289.217 111.976C288.544 110.784 287.971 109.538 287.503 108.252C286.932 106.477 286.788 104.592 287.083 102.751C287.377 100.91 288.103 99.1639 289.2 97.6558C289.241 97.6033 289.271 97.5431 289.288 97.4787C289.306 97.4144 289.31 97.3472 289.301 97.2811C289.292 97.215 289.27 97.1514 289.236 97.0941C289.202 97.0367 289.157 96.9868 289.103 96.9471C289.049 96.9075 288.988 96.879 288.923 96.8634C288.859 96.8478 288.791 96.8453 288.726 96.8561C288.66 96.8669 288.597 96.8908 288.54 96.9263C288.484 96.9619 288.435 97.0084 288.397 97.063C287.206 98.6996 286.418 100.594 286.097 102.593C285.776 104.592 285.932 106.638 286.551 108.565C287.036 109.904 287.631 111.201 288.33 112.442C289.368 114.408 290.348 116.264 290.463 118.345C290.608 120.965 289.318 123.48 288.181 125.698C288.142 125.774 288.123 125.858 288.127 125.944C288.13 126.029 288.155 126.112 288.199 126.185C288.244 126.258 288.306 126.318 288.381 126.36C288.455 126.402 288.539 126.424 288.625 126.424H288.628Z" fill="white"/>
<path d="M280.615 134.212C280.726 134.212 280.834 134.175 280.921 134.107C281.008 134.04 281.071 133.945 281.099 133.838C281.126 133.731 281.117 133.617 281.074 133.516C281.03 133.414 280.954 133.33 280.857 133.276C279.008 132.257 278.801 129.418 279.669 127.263C280.1 126.272 280.604 125.315 281.178 124.4C281.944 123.213 282.567 121.941 283.034 120.608C283.511 118.982 283.54 117.259 283.121 115.618C282.701 113.977 281.847 112.48 280.648 111.284C280.553 111.193 280.425 111.143 280.294 111.146C280.162 111.149 280.037 111.203 279.946 111.297C279.854 111.392 279.803 111.519 279.805 111.65C279.806 111.782 279.859 111.907 279.953 112C281.022 113.067 281.783 114.402 282.158 115.865C282.532 117.328 282.505 118.865 282.08 120.314C281.637 121.572 281.046 122.772 280.32 123.891C279.719 124.849 279.193 125.851 278.744 126.889C277.727 129.412 277.953 132.814 280.375 134.15C280.449 134.19 280.531 134.212 280.615 134.212Z" fill="white"/>
<path d="M304.766 177.706L378.242 208.114C380.891 209.198 383.799 209.487 386.61 208.946C389.421 208.405 392.013 207.057 394.07 205.066C396.127 203.076 397.56 200.53 398.194 197.738C398.827 194.947 398.633 192.031 397.637 189.348L375.722 129.494C372.889 121.866 364.908 117.479 357.279 120.313C353.616 121.674 350.643 124.434 349.015 127.986C347.386 131.538 347.236 135.592 348.596 139.255L358.592 167.584L315.53 150.983" fill="#FF4F28"/>
<path d="M304.946 177.978C304.985 177.977 305.023 177.966 305.055 177.944C305.088 177.922 305.113 177.891 305.128 177.855L315.819 151.31L358.737 167.873C358.773 167.886 358.812 167.89 358.849 167.882C358.886 167.874 358.92 167.855 358.947 167.828C358.974 167.801 358.993 167.767 359 167.73C359.008 167.692 359.005 167.654 358.991 167.618L352.354 150.585C352.335 150.537 352.298 150.498 352.25 150.477C352.203 150.456 352.149 150.455 352.1 150.474C352.052 150.493 352.013 150.53 351.992 150.578C351.971 150.625 351.97 150.679 351.989 150.728L358.463 167.345L315.78 150.873C315.731 150.854 315.678 150.855 315.631 150.876C315.583 150.896 315.546 150.935 315.527 150.982L304.763 177.708C304.745 177.756 304.746 177.81 304.766 177.858C304.786 177.906 304.824 177.944 304.872 177.964C304.896 177.973 304.92 177.978 304.946 177.978Z" fill="#0C0C0C"/>
<path d="M372.216 173.143C372.262 173.144 372.307 173.128 372.343 173.099C372.378 173.07 372.402 173.029 372.411 172.984C372.419 172.938 372.412 172.892 372.389 172.852C372.367 172.811 372.331 172.78 372.288 172.764L358.846 167.475C358.822 167.465 358.796 167.46 358.77 167.46C358.744 167.46 358.718 167.466 358.694 167.476C358.67 167.486 358.649 167.501 358.63 167.52C358.612 167.538 358.598 167.56 358.588 167.585C358.579 167.609 358.574 167.635 358.575 167.661C358.575 167.687 358.581 167.713 358.592 167.736C358.602 167.76 358.617 167.782 358.636 167.8C358.655 167.818 358.678 167.831 358.702 167.841L372.145 173.13C372.168 173.139 372.192 173.143 372.216 173.143Z" fill="#0C0C0C"/>
<path d="M369.086 204.563C369.131 204.563 369.176 204.548 369.211 204.519C369.246 204.49 369.27 204.45 369.279 204.405C369.288 204.36 369.281 204.314 369.259 204.274C369.238 204.234 369.203 204.202 369.161 204.185L305.018 177.6C304.995 177.59 304.969 177.585 304.943 177.585C304.918 177.585 304.892 177.59 304.868 177.6C304.844 177.61 304.823 177.625 304.805 177.643C304.786 177.661 304.772 177.683 304.762 177.707C304.752 177.73 304.747 177.756 304.747 177.782C304.747 177.807 304.752 177.833 304.762 177.857C304.772 177.881 304.787 177.902 304.805 177.92C304.823 177.939 304.845 177.953 304.869 177.963L369.011 204.548C369.035 204.558 369.06 204.563 369.086 204.563Z" fill="#0C0C0C"/>
<path d="M43.4413 364.564C43.5737 364.564 43.7006 364.512 43.7941 364.418C44.4972 363.715 45.6429 350.817 48.7296 312.414C49.9931 296.7 51.1861 281.858 52.0564 272.838C52.1187 272.194 52.3682 272.118 52.4505 272.094C53.6421 271.734 57.2668 274.592 59.2902 277.095C59.3734 277.198 59.494 277.263 59.6256 277.277C59.7572 277.291 59.889 277.252 59.992 277.169C60.095 277.086 60.1607 276.965 60.1746 276.834C60.1886 276.702 60.1498 276.57 60.0666 276.467C58.7283 274.813 54.3672 270.475 52.1636 271.138C51.719 271.272 51.1657 271.658 51.0629 272.742C50.1916 281.769 48.9986 296.616 47.7351 312.333C45.8594 335.67 43.7342 362.109 43.0362 363.774C42.9825 363.849 42.9505 363.936 42.9436 364.028C42.9368 364.12 42.9553 364.211 42.9972 364.293C43.0391 364.375 43.1027 364.443 43.1811 364.491C43.2594 364.539 43.3495 364.564 43.4413 364.564Z" fill="#494949"/>
<path d="M53.3383 289.389C45.0582 282.752 42.3139 272.422 47.2086 266.315C52.1034 260.209 62.7837 260.64 71.0638 267.276C79.3439 273.913 82.0882 284.244 77.1935 290.35C72.2987 296.456 61.6184 296.026 53.3383 289.389Z" fill="#0CBC8B"/>
<path opacity="0.2" d="M53.3383 289.389C45.0582 282.752 42.3139 272.422 47.2086 266.315C52.1034 260.209 62.7837 260.64 71.0638 267.276C79.3439 273.913 82.0882 284.244 77.1935 290.35C72.2987 296.456 61.6184 296.026 53.3383 289.389Z" fill="white"/>
<path d="M74.8725 291.904C74.9199 291.904 74.9663 291.89 75.0063 291.865C75.0463 291.839 75.0783 291.803 75.0984 291.76C75.1185 291.717 75.1259 291.669 75.1199 291.622C75.1138 291.575 75.0945 291.531 75.0641 291.494L51.4665 263.039C51.4458 263.013 51.4201 262.991 51.391 262.975C51.3619 262.96 51.33 262.95 51.297 262.946C51.264 262.943 51.2307 262.946 51.199 262.956C51.1673 262.966 51.1379 262.982 51.1124 263.003C51.0869 263.024 51.0659 263.05 51.0506 263.079C51.0353 263.109 51.0259 263.141 51.0232 263.174C51.0204 263.207 51.0243 263.24 51.0345 263.272C51.0448 263.303 51.0612 263.332 51.0828 263.357L74.6804 291.813C74.7038 291.842 74.7332 291.864 74.7664 291.88C74.7996 291.895 74.8358 291.904 74.8725 291.904Z" fill="white"/>
<path d="M38.2943 358.464C38.374 358.464 38.4525 358.445 38.5233 358.408C38.5941 358.372 38.6551 358.319 38.7013 358.254C38.7475 358.189 38.7774 358.114 38.7886 358.035C38.7998 357.956 38.792 357.876 38.7658 357.801L29.9018 332.31C29.6409 331.561 29.1961 330.889 28.6084 330.357C28.0206 329.824 27.3086 329.447 26.5375 329.261C25.7665 329.075 24.961 329.086 24.195 329.292C23.429 329.497 22.7269 329.892 22.153 330.44L17.4671 334.916C17.3714 335.008 17.3159 335.134 17.313 335.266C17.31 335.398 17.3597 335.526 17.4511 335.622C17.5425 335.718 17.6683 335.773 17.8006 335.776C17.9329 335.779 18.061 335.729 18.1567 335.638L22.8427 331.162C23.2957 330.73 23.8499 330.418 24.4545 330.256C25.0591 330.093 25.6948 330.085 26.3034 330.232C26.912 330.379 27.474 330.676 27.938 331.096C28.402 331.517 28.7531 332.046 28.9592 332.638L37.8233 358.129C37.8572 358.226 37.9209 358.311 38.0053 358.371C38.0897 358.432 38.1907 358.464 38.2943 358.464Z" fill="#494949"/>
<path d="M4.37386 349.03C-1.76247 344.173 -1.3978 333.49 5.18837 325.17C11.7745 316.85 22.0882 314.042 28.2245 318.899C34.3608 323.756 33.9962 334.438 27.41 342.759C20.8238 351.079 10.5102 353.887 4.37386 349.03Z" fill="#0CBC8B"/>
<path d="M47.4682 362.939C47.5803 362.939 47.6892 362.901 47.7772 362.831C47.8652 362.762 47.9272 362.665 47.9532 362.555L62.828 300.362C62.9297 299.938 63.1463 299.55 63.4541 299.241C63.7618 298.932 64.1488 298.714 64.5724 298.611C64.996 298.508 65.4398 298.524 65.855 298.657C66.2703 298.789 66.6409 299.034 66.9262 299.364L71.5114 304.662C71.5543 304.712 71.6065 304.752 71.6651 304.782C71.7237 304.811 71.7875 304.829 71.8528 304.834C71.9182 304.838 71.9839 304.83 72.0461 304.809C72.1083 304.789 72.1659 304.756 72.2154 304.713C72.265 304.67 72.3056 304.618 72.335 304.559C72.3644 304.501 72.382 304.437 72.3867 304.372C72.3914 304.306 72.3832 304.241 72.3626 304.178C72.3419 304.116 72.3092 304.059 72.2663 304.009L67.6807 298.711C67.275 298.243 66.7483 297.896 66.1583 297.708C65.5683 297.52 64.9379 297.498 64.3363 297.645C63.7348 297.791 63.1853 298.101 62.7484 298.54C62.3114 298.979 62.0038 299.529 61.8595 300.132L46.9847 362.325C46.9539 362.454 46.9755 362.59 47.0448 362.703C47.114 362.815 47.2252 362.896 47.3539 362.927C47.3914 362.935 47.4297 362.939 47.4682 362.939Z" fill="#494949"/>
<path d="M52.9545 318.478C51.1463 308.022 55.9318 298.465 63.6434 297.131C71.3549 295.798 79.0722 303.193 80.8805 313.649C82.6887 324.106 77.9032 333.663 70.1916 334.997C62.4801 336.33 54.7628 328.935 52.9545 318.478Z" fill="#0CBC8B"/>
<path d="M43.4403 364.564C43.461 364.564 43.4817 364.563 43.5022 364.56C43.6335 364.544 43.7531 364.477 43.8346 364.372C43.9161 364.268 43.9529 364.136 43.9368 364.004L34.4376 286.884C34.3344 286.044 33.9905 285.251 33.4473 284.602C32.9041 283.952 32.1848 283.473 31.3759 283.223C30.5669 282.972 29.7029 282.961 28.8876 283.19C28.0724 283.419 27.3407 283.879 26.7806 284.514L15.9237 296.81C15.8361 296.909 15.7915 297.039 15.7997 297.171C15.8079 297.303 15.8683 297.427 15.9676 297.514C16.0668 297.602 16.1968 297.647 16.329 297.638C16.4611 297.63 16.5846 297.57 16.6722 297.471L27.5291 285.174C27.9622 284.683 28.5279 284.328 29.1581 284.151C29.7884 283.974 30.4564 283.983 31.0817 284.177C31.707 284.371 32.263 284.741 32.6826 285.243C33.1023 285.746 33.3677 286.359 33.4471 287.009L42.9478 364.126C42.9626 364.247 43.0208 364.358 43.1114 364.438C43.2021 364.519 43.319 364.564 43.4403 364.564Z" fill="#494949"/>
<path d="M4.79054 303.643C1.00251 296.795 5.45945 287.079 14.7454 281.943C24.0313 276.807 34.6299 278.194 38.4179 285.042C42.2059 291.89 37.749 301.605 28.463 306.742C19.1771 311.878 8.57857 310.491 4.79054 303.643Z" fill="#0CBC8B"/>
<path opacity="0.2" d="M4.37386 349.03C-1.76247 344.173 -1.3978 333.49 5.18837 325.17C11.7745 316.85 22.0882 314.042 28.2245 318.899C34.3608 323.756 33.9962 334.438 27.41 342.759C20.8238 351.079 10.5102 353.887 4.37386 349.03Z" fill="white"/>
<path opacity="0.5" d="M52.9545 318.478C51.1463 308.022 55.9318 298.465 63.6434 297.131C71.3549 295.798 79.0722 303.193 80.8805 313.649C82.6887 324.106 77.9032 333.663 70.1916 334.997C62.4801 336.33 54.7628 328.935 52.9545 318.478Z" fill="white"/>
<path opacity="0.5" d="M4.79054 303.643C1.00251 296.795 5.45945 287.079 14.7454 281.943C24.0313 276.807 34.6299 278.194 38.4179 285.042C42.2059 291.89 37.749 301.605 28.463 306.742C19.1771 311.878 8.57857 310.491 4.79054 303.643Z" fill="white"/>
<path d="M31.292 430H55.5907L59.617 352.258H27.2651L31.292 430Z" fill="#292A2E"/>
<path opacity="0.3" d="M31.292 430H55.5907L59.617 352.258H27.2651L31.292 430Z" fill="white"/>
<path d="M4.37364 349.276C4.41133 349.276 4.44855 349.268 4.48252 349.252C4.51648 349.235 4.5463 349.212 4.56974 349.182L28.4213 319.051C28.4624 318.999 28.4812 318.933 28.4736 318.867C28.466 318.801 28.4325 318.741 28.3807 318.7C28.3288 318.659 28.2627 318.64 28.197 318.648C28.1312 318.655 28.0712 318.689 28.0301 318.741L4.17854 348.872C4.14937 348.908 4.13114 348.953 4.12594 348.999C4.12075 349.046 4.12878 349.093 4.14915 349.135C4.16952 349.177 4.20139 349.213 4.2411 349.238C4.2808 349.263 4.32674 349.276 4.37364 349.276Z" fill="white"/>
<path d="M6.37656 306.057C6.42955 306.056 6.481 306.039 6.52326 306.007L37.0448 283.723C37.0713 283.704 37.0937 283.68 37.1108 283.652C37.1278 283.624 37.1392 283.593 37.1442 283.56C37.1493 283.528 37.1479 283.495 37.1402 283.463C37.1325 283.431 37.1185 283.401 37.0992 283.375C37.0799 283.348 37.0555 283.326 37.0275 283.309C36.9995 283.292 36.9685 283.28 36.9361 283.275C36.9037 283.27 36.8706 283.272 36.8388 283.279C36.8069 283.287 36.7769 283.301 36.7504 283.32L6.22936 305.606C6.18764 305.637 6.15678 305.681 6.1411 305.73C6.12543 305.78 6.12571 305.834 6.14195 305.883C6.1582 305.933 6.18957 305.976 6.23165 306.007C6.27373 306.038 6.3244 306.054 6.37656 306.055V306.057Z" fill="white"/>
<path d="M71.432 334.672C71.4537 334.672 71.4754 334.669 71.4964 334.663C71.5603 334.646 71.6148 334.605 71.6479 334.547C71.6811 334.49 71.6901 334.422 71.673 334.358L61.9568 297.957C61.9487 297.924 61.9344 297.894 61.9146 297.868C61.8948 297.841 61.8699 297.819 61.8414 297.802C61.8129 297.785 61.7813 297.774 61.7485 297.77C61.7157 297.765 61.6823 297.767 61.6503 297.776C61.6183 297.784 61.5883 297.799 61.5621 297.82C61.5359 297.84 61.514 297.865 61.4977 297.894C61.4813 297.923 61.4709 297.954 61.4669 297.987C61.463 298.02 61.4657 298.053 61.4747 298.085L71.1905 334.487C71.2047 334.54 71.2361 334.587 71.2798 334.62C71.3235 334.654 71.377 334.672 71.432 334.672Z" fill="white"/>
</g>
<defs>
<clipPath id="clip0_5_1402">
<rect width="436" height="430" fill="white" transform="matrix(-1 0 0 1 436 0)"/>
</clipPath>
</defs>
</svg>
